<svg width="1145" height="1100" viewBox="0 0 1145 1100" fill="none" xmlns="http://www.w3.org/2000/svg">
<path d="M83 259.5L614 0L1145 259.5V778.5L614 1038L83 778.5V259.5Z" fill="black"/>
<path d="M89 262.5L614 6L1139 262.5V775.5L614 1032L89 775.5V262.5Z" fill="white"/>
<path d="M127 281.177L614 43.6768L1101 281.177V756.177L614 993.677L127 756.177V281.177Z" fill="black"/>
<path d="M166.9 292.995C164.114 290.781 163.041 289.507 163.681 289.173C164.642 288.671 166.181 288.886 168.299 289.819C170.249 290.431 171.468 290.814 171.955 290.967C177.667 294.099 183.95 297.545 190.803 301.303C197.49 304.742 204.602 309.385 212.139 315.232C219.676 321.08 227.561 328.376 235.796 337.121C243.863 345.545 252.292 356.226 261.085 369.163C271.201 383.854 279.633 399.221 286.379 415.265C293.278 430.821 299.46 446.955 304.925 463.668C304.939 464.475 305.455 466.244 306.472 468.974C307.49 471.703 307.518 473.319 306.557 473.821C305.917 474.155 304.691 473.369 302.88 471.461C300.901 469.233 299.661 467.639 299.159 466.678C296.679 463.489 293.864 459.659 290.715 455.189C287.566 450.719 284.333 446.089 281.017 441.299C277.854 436.021 274.858 431.063 272.029 426.426C269.353 421.301 267.012 416.817 265.005 412.973C264.336 411.692 262.754 409.053 260.26 405.056C257.919 400.572 255.083 395.531 251.752 389.933C248.422 384.334 244.52 378.423 240.047 372.198C235.727 365.486 231.331 359.018 226.858 352.793C232.683 362.388 237.867 372.317 242.411 382.581C246.955 392.845 251.422 403.353 255.813 414.104C260.036 424.535 264.503 435.043 269.214 445.627C273.758 455.891 279.026 465.98 285.018 475.896C296.347 495.253 310.887 513.341 328.636 530.162C346.386 546.982 366.711 558.585 389.611 564.972C392.537 565.89 393.839 566.433 393.519 566.6C393.045 567.255 391.757 567.52 389.654 567.395C375.098 566.842 361.796 564.005 349.746 558.883C337.697 553.761 326.51 547.169 316.187 539.107C306.184 530.879 297.135 521.744 289.04 511.704C280.777 501.344 273.475 490.482 267.135 479.118C266.633 478.157 266.055 477.44 265.4 476.967C264.898 476.006 264.396 475.045 263.895 474.084C267.021 495.686 269.012 517.066 269.868 538.223C271.044 559.212 271.886 579.561 272.393 599.27C273.221 618.811 273.951 637.384 274.582 654.99C275.368 672.108 276.932 687.595 279.276 701.453C279.472 703.389 279.409 704.441 279.089 704.608C278.448 704.943 277.877 704.63 277.376 703.669C276.874 702.708 276.539 702.067 276.372 701.747C268.832 686.525 263.681 669.242 260.917 649.896C257.986 630.23 255.766 609.582 254.255 587.952C252.898 565.834 251.693 543.228 250.642 520.135C249.423 496.722 246.916 473.574 243.121 450.691C240.442 436.192 236.872 421.547 232.411 406.757C228.27 391.799 223.007 377.426 216.624 363.639C210.241 349.852 202.904 336.97 194.613 324.994C186.155 312.698 176.917 302.032 166.9 292.995ZM370.967 538.632C378.337 544.159 386.577 548.621 395.687 552.016C390.905 537.393 388.289 521.843 387.839 505.366C387.221 488.568 387.404 471.353 388.388 453.719C389.692 435.918 391.316 417.95 393.261 399.815C395.205 381.679 396.426 363.718 396.922 345.932C397.503 332.992 396.705 319.753 394.528 306.216C392.672 292.511 389.45 279.314 384.864 266.627C380.431 253.452 374.64 241.19 367.492 229.84C360.663 218.324 352.408 208.367 342.725 199.971C340.928 198.872 340.183 197.834 340.489 196.859C340.795 195.884 342.007 195.863 344.124 196.795C346.394 197.24 347.857 197.7 348.512 198.173C355.198 201.611 362.004 207.229 368.929 215.027C376.007 222.337 382.869 231.187 389.516 241.576C396.316 251.477 402.81 262.353 408.997 274.204C415.185 286.055 420.892 298.157 426.119 310.51C433.032 326.874 439.577 345.265 445.753 365.682C452.25 385.932 457.11 404.998 460.332 422.881C460.347 423.689 460.459 425.465 460.668 428.209C461.198 430.785 460.983 432.324 460.022 432.826C459.214 432.84 458.065 431.81 456.574 429.735C454.916 427.34 453.919 425.822 453.585 425.181C451.745 421.658 449.571 417.494 447.063 412.69C444.707 407.397 442.352 402.105 439.996 396.813C437.474 391.201 435.118 385.909 432.93 380.937C430.895 375.478 429.278 370.819 428.079 366.961C427.396 364.872 425.618 360.297 422.747 353.237C420.029 345.688 416.732 337.423 412.858 328.44C413.697 339.415 414.835 349.012 416.272 357.229C417.709 365.446 419.382 373.336 421.293 380.899C423.203 388.461 425.441 396.26 428.006 404.296C430.892 412.165 434.446 421.315 438.67 431.746C442.893 442.177 447.848 452.838 453.534 463.728C459.54 474.451 466.263 484.596 473.704 494.163C481.465 503.562 489.943 512.383 499.138 520.626C508.486 528.381 518.537 534.751 529.292 539.734C531.576 540.987 532.482 541.941 532.008 542.595C531.535 543.25 530.567 543.348 529.104 542.889C514.507 539.912 501.489 534.888 490.052 527.816C478.768 520.256 468.674 511.463 459.771 501.437C450.867 491.412 443.162 480.557 436.654 468.873C430.299 456.701 424.752 444.516 420.013 432.316C418.479 427.817 416.786 423.402 414.932 419.071C413.398 414.573 411.781 409.914 410.081 405.096C408.901 420.793 407.555 436.171 406.041 451.228C404.527 466.285 403.494 481.091 402.941 495.646C402.221 509.881 402.142 523.782 402.703 537.348C403.417 550.426 405.252 562.919 408.209 574.827C408.404 576.763 408.502 577.731 408.502 577.731C407.861 578.066 407.207 577.592 406.538 576.311C405.869 575.03 405.451 574.229 405.283 573.909C403.945 571.347 402.608 568.784 401.27 566.222C399.932 563.659 398.914 560.93 398.217 558.033C394.986 558.089 392.158 558.139 389.735 558.181C387.144 557.904 384.469 557.466 381.711 556.868C379.274 556.102 376.509 555.1 373.416 553.861C370.644 552.456 367.377 550.493 363.616 547.973C360.342 545.606 356.734 542.598 352.791 538.95C348.848 535.302 345.149 531.731 341.694 528.236C338.392 524.253 335.828 520.904 334.002 518.189C332.33 514.986 331.974 513.133 332.935 512.631C333.576 512.297 334.551 512.603 335.86 513.55C337.323 514.009 338.953 514.789 340.75 515.888C342.547 516.988 344.184 518.172 345.661 519.439C347.138 520.706 348.203 521.576 348.858 522.049C352.466 525.057 356.075 528.064 359.683 531.072C363.445 533.592 367.206 536.112 370.967 538.632ZM334.649 444.479C334.505 427.027 334.771 409.972 335.449 393.313C336.28 376.167 336.93 362.58 337.401 352.551C337.897 334.765 338.881 317.131 340.352 299.65C341.656 281.85 342.675 266.236 343.409 252.808C343.214 250.872 343.102 249.097 343.073 247.481C343.365 245.698 343.999 244.96 344.974 245.266C345.615 244.931 346.193 245.648 346.709 247.417C347.225 249.186 347.74 250.955 348.256 252.723C355.813 278.127 359.017 304.172 357.869 330.859C357.041 357.379 355.656 384.393 353.714 411.902C352.909 421.29 351.999 429.306 350.985 435.95C350.123 442.107 349.581 448.096 349.36 453.919C349.292 459.253 349.795 464.901 350.87 470.862C351.944 476.823 354.251 483.975 357.791 492.317C357.233 488.124 356.918 484.009 356.848 479.969C356.777 475.93 356.789 472.051 356.886 468.332C357.827 448.275 359.889 427.633 363.073 406.405C366.256 385.177 369.781 364.994 373.647 345.855C373.954 344.88 374.406 343.013 375.004 340.255C375.755 337.01 376.534 335.38 377.342 335.366C378.15 335.352 378.743 336.877 379.119 339.941C379.817 342.838 380.34 345.01 380.688 346.459C380.926 350.818 381.102 356.229 381.215 362.692C381.649 368.988 381.846 375.611 381.806 382.561C381.92 389.024 381.873 395.57 381.666 402.2C381.292 408.51 380.82 413.851 380.25 418.225C379.972 420.816 379.256 426.081 378.103 434.02C376.949 441.96 376.227 451.508 375.938 462.665C375.649 473.821 375.945 486.099 376.827 499.498C378.028 512.73 380.686 526.017 384.798 539.359C382.834 537.939 380.299 536.205 377.192 534.159C374.406 531.945 370.379 528.137 365.113 522.734C348.811 505.565 334.989 486.898 323.645 466.733C312.455 446.081 301.334 424.781 290.282 402.833C283.411 388.892 276.22 375.119 268.709 361.514C261.518 347.741 251.666 334.337 239.155 321.304C238.165 320.19 237.664 319.229 237.65 318.421C238.29 318.087 239.753 318.546 242.037 319.799C250.98 322.875 259.987 329.585 269.057 339.931C277.961 349.957 286.481 361.202 294.619 373.665C302.59 385.809 309.836 398.126 316.358 410.618C323.033 422.622 328.294 432.308 332.141 439.675L334.649 444.479ZM186.465 468.654C183.214 449.155 180.52 429.162 178.383 408.674C176.566 388.019 174.708 369.627 172.809 353.498C172.614 351.562 172.418 349.626 172.223 347.69C172.347 345.587 172.814 344.528 173.622 344.514C174.262 344.18 175.008 345.217 175.858 347.627C176.861 349.548 177.781 351.31 178.617 352.912C189.448 380.682 197.312 409.797 202.21 440.256C207.108 470.716 210.877 501.358 213.519 532.18C215.475 551.54 217.034 571.311 218.196 591.493C219.19 611.355 222.219 631.989 227.281 653.395C227.477 655.331 227.658 656.459 227.825 656.779C228.313 656.932 228.397 657.093 228.076 657.26C226.781 657.121 225.548 655.93 224.377 653.688C217.759 644.915 212.448 632.402 208.446 616.149C204.277 599.576 200.901 582.18 198.319 563.962C195.569 545.425 193.398 527.604 191.805 510.5C190.045 493.076 188.265 479.128 186.465 468.654ZM225.509 593.789C223.984 571.351 222.849 548.098 222.103 524.03C221.191 499.641 220.46 476.381 219.91 454.249C219.729 453.121 219.61 450.941 219.553 447.71C219.817 444.311 220.673 442.438 222.121 442.089C222.762 441.755 223.674 443.112 224.859 446.162C226.044 449.212 226.651 451.545 226.679 453.161C228.059 458.147 229.621 464.261 231.364 471.503C232.94 478.425 234.363 485.835 235.633 493.732C237.056 501.141 238.319 508.634 239.421 516.211C240.356 523.467 240.95 529.679 241.202 534.846C241.245 537.27 241.657 542.354 242.44 550.098C243.375 557.354 244.339 566.226 245.331 576.714C246.643 587.034 247.969 598.163 249.31 610.099C250.804 621.548 252.29 632.593 253.77 643.233C255.082 653.554 256.297 662.906 257.414 671.291C258.683 679.188 259.911 684.662 261.096 687.712C262.127 691.249 262.323 693.185 261.682 693.519C261.042 693.854 260.227 693.464 259.237 692.35C258.569 691.069 257.907 690.192 257.252 689.718C253.644 686.711 249.916 681.524 246.07 674.157C242.544 666.622 239.407 658.273 236.661 649.109C233.914 639.945 231.404 630.454 229.131 620.635C227.178 610.649 225.971 601.7 225.509 593.789ZM490.287 402.962C496.211 418.212 501.174 433.963 505.176 450.216C509.499 466.302 513.305 480.62 516.596 493.168C517.489 498.001 517.531 500.425 516.724 500.439C516.083 500.773 515.268 500.383 514.279 499.269C513.443 497.668 512.446 496.15 511.29 494.716C497.523 474.593 486.638 452.966 478.636 429.833C470.635 406.7 462.702 382.92 454.84 358.492C450.378 343.701 445.269 328.841 439.512 313.912C433.588 298.662 425.561 283.287 415.43 267.788C414.761 266.507 414.58 265.379 414.886 264.404C415.527 264.069 416.098 264.382 416.6 265.343C417.254 265.817 417.986 266.046 418.794 266.032C427.277 270.57 435.101 278.918 442.263 291.075C449.579 302.745 456.269 315.557 462.331 329.512C468.394 343.466 473.726 357.191 478.326 370.686C483.247 384.014 487.234 394.773 490.287 402.962ZM176.815 333.064C172.662 326.672 168.44 320.928 164.149 315.832C160.178 310.568 155.803 305.311 151.024 300.062C150.369 299.588 149.791 298.871 149.289 297.91C148.787 296.949 148.696 296.385 149.017 296.218C149.978 295.716 151.189 295.695 152.652 296.154L155.577 297.073C161.609 300.038 167 303.337 171.751 306.971C176.334 310.284 181.706 317.059 187.865 327.295C190.36 331.291 193.035 336.416 195.892 342.669C198.75 348.922 201.119 355.022 203.001 360.969C205.204 366.749 206.668 371.895 207.393 376.407C208.439 380.753 208.398 383.016 207.27 383.197C206.629 383.532 205.731 382.982 204.574 381.548C203.251 379.793 201.843 377.878 200.352 375.803C199.182 373.561 198.011 371.319 196.84 369.077C195.503 366.515 194.583 364.753 194.081 363.792C191.238 358.347 188.562 353.222 186.054 348.417C183.378 343.293 180.298 338.175 176.815 333.064ZM349.4 235.006C346.07 229.408 342.586 224.297 338.949 219.674C335.633 214.884 331.753 210.184 327.308 205.575C326.653 205.102 325.915 204.468 325.093 203.675C324.591 202.714 324.744 202.226 325.552 202.212C326.527 202.518 327.258 202.748 327.746 202.901C328.554 202.887 329.362 202.872 330.17 202.858L331.632 203.317C337.497 205.962 342.477 208.865 346.573 212.025C350.989 215.019 355.866 221.236 361.203 230.678C363.043 234.201 364.904 238.936 366.786 244.883C368.988 250.663 370.787 256.45 372.181 262.243C373.729 267.55 374.622 272.383 374.86 276.742C375.251 280.614 374.639 282.564 373.023 282.593C372.215 282.607 371.393 281.813 370.557 280.211C369.553 278.29 368.55 276.368 367.547 274.446C366.376 272.204 365.449 270.038 364.766 267.949C364.083 265.86 363.49 264.335 362.989 263.374C360.954 257.915 358.765 252.943 356.424 248.459C354.403 243.807 352.062 239.323 349.4 235.006ZM514.721 510.656C519.486 515.097 524.16 518.975 528.743 522.289C533.647 525.435 538.551 528.581 543.454 531.728C543.942 531.881 544.597 532.354 545.419 533.148C546.073 533.621 546.08 534.025 545.44 534.36C544.479 534.861 543.595 535.119 542.787 535.134C542.299 534.98 541.652 534.911 540.844 534.925C540.036 534.939 539.388 534.87 538.901 534.717C532.577 533.535 527.137 532.095 522.582 530.397C518.027 528.699 512.134 524.439 504.903 517.616C502.27 514.915 499.219 511.412 495.749 507.11C492.28 502.807 489.214 498.497 486.553 494.18C483.891 489.863 481.884 486.019 480.532 482.649C479.18 479.279 479.145 477.259 480.426 476.59C480.746 476.423 481.645 476.973 483.122 478.24C484.431 479.187 485.748 480.537 487.072 482.292C488.548 483.559 489.949 485.07 491.272 486.824C492.749 488.091 493.815 488.962 494.47 489.435C498.412 493.083 501.951 496.738 505.086 500.4C508.221 504.063 511.433 507.481 514.721 510.656Z" fill="white"/>
<path d="M599.703 403.452C600.633 407.396 601.066 411.567 601.002 415.966C600.938 420.364 600.861 424.495 600.772 428.359C600.764 428.581 600.683 429.001 600.528 429.618C600.464 430.193 600.341 430.522 600.16 430.605C599.848 430.639 599.589 430.43 599.382 429.978C599.134 429.436 598.969 429.074 598.886 428.894C598.605 428.04 598.306 427.029 597.991 425.862C597.725 424.564 597.414 423.286 597.058 422.03C596.66 420.682 596.303 419.425 595.988 418.259C595.722 416.96 595.518 415.798 595.376 414.77C594.784 411.327 594.264 408.397 593.814 405.982C593.323 403.475 592.8 401.257 592.245 399.326C591.69 397.396 591.04 395.617 590.297 393.991C589.643 392.324 588.747 390.604 587.609 388.831C587.188 388.149 587.027 387.677 587.125 387.414C587.264 387.241 587.531 387.228 587.926 387.375C588.321 387.522 588.671 387.69 588.975 387.878C591.627 389.615 593.905 391.85 595.81 394.583C597.674 397.226 598.972 400.182 599.703 403.452ZM598.803 392.886C600.762 394.066 602.382 396.056 603.663 398.856C604.944 401.656 605.995 404.671 606.816 407.9C607.596 411.038 608.199 414.149 608.626 417.23C609.052 420.312 609.456 422.749 609.839 424.54C610.562 428.032 611.014 431.648 611.196 435.389C611.377 439.129 611.574 442.425 611.786 445.277C611.819 445.589 611.829 445.967 611.813 446.411C611.756 446.765 611.638 446.983 611.457 447.066C611.276 447.148 611.103 447.009 610.938 446.648C610.773 446.286 610.628 445.97 610.504 445.699C607.961 440.855 606.293 435.774 605.5 430.457C604.665 425.049 603.9 419.556 603.205 413.975C602.745 410.581 602.219 407.162 601.627 403.719C600.994 400.186 599.786 396.588 598.001 392.925C597.836 392.564 597.799 392.363 597.889 392.321L598.803 392.886ZM585.012 396.408C580.535 401.187 577.325 406.587 575.382 412.609C573.488 418.5 572.701 424.54 573.019 430.73C573.19 433.491 573.484 435.924 573.899 438.028C574.274 440.041 574.822 442.194 575.542 444.485C575.658 444.978 576 445.368 576.568 445.655C577.136 445.941 577.498 445.776 577.652 445.159C578.37 442.428 579.29 438.948 580.415 434.72C581.54 430.492 582.582 426.083 583.541 421.494C584.501 416.904 585.168 412.393 585.545 407.961C586.011 403.488 585.833 399.637 585.012 396.408ZM596.942 446.495C596.454 449.012 595.95 451.372 595.429 453.577C594.908 455.781 594.169 457.867 593.212 459.834C592.213 461.711 590.93 463.444 589.364 465.034C587.797 466.625 585.815 468.023 583.418 469.229C579.435 471.268 575.844 471.655 572.643 470.388C569.532 469.08 566.827 466.986 564.526 464.106C562.226 461.225 560.381 458.028 558.992 454.512C557.652 450.865 556.827 447.747 556.516 445.159C556.064 441.542 555.875 438.024 555.949 434.604C556.073 431.052 556.386 427.796 556.889 424.836C557.44 421.743 558.158 419.012 559.04 416.643C559.971 414.141 561.043 412.067 562.256 410.42C562.347 410.379 562.486 410.206 562.674 409.901C562.953 409.555 563.154 409.518 563.278 409.789C563.369 409.748 563.385 409.904 563.329 410.257C563.272 410.611 563.195 410.919 563.097 411.183C560.63 418.209 559.401 425.434 559.41 432.857C559.51 440.24 560.866 447.265 563.479 453.935C564.133 455.602 564.983 457.343 566.032 459.157C567.17 460.93 568.448 462.53 569.866 463.958C571.332 465.253 572.966 466.199 574.768 466.795C576.528 467.3 578.492 467.057 580.66 466.066C582.377 465.281 583.834 464.287 585.031 463.084C586.187 461.79 587.191 460.403 588.043 458.921C588.853 457.349 589.507 455.794 590.005 454.255C590.552 452.585 591.005 451.067 591.363 449.702C592.137 446.617 592.734 443.504 593.154 440.363C592.328 438.556 591.613 436.753 591.008 434.954C590.494 433.114 590.071 431.233 589.737 429.31C589.43 427.921 589.201 426.824 589.052 426.019C588.951 425.082 588.846 424.256 588.737 423.541C588.678 422.694 588.573 421.868 588.423 421.063C588.323 420.126 588.209 418.922 588.082 417.451C587.794 420.641 587.443 423.696 587.031 426.615C586.667 429.403 586.147 432.208 585.472 435.029C584.845 437.719 584.128 440.45 583.32 443.222C582.562 445.863 581.643 448.631 580.565 451.527C579.732 453.765 578.694 454.841 577.453 454.753C576.211 454.666 575.046 453.669 573.956 451.765C572.371 448.776 571.143 445.733 570.272 442.636C569.492 439.497 569.012 436.058 568.83 432.318C568.683 428.89 568.847 425.429 569.324 421.934C569.891 418.397 570.808 415.029 572.075 411.828C573.391 408.495 575.098 405.421 577.196 402.604C579.253 399.698 581.738 397.25 584.652 395.262C584.378 394.186 584.121 393.266 583.881 392.502C583.731 391.696 583.536 390.912 583.296 390.148C583.022 389.072 582.885 388.533 582.885 388.533C583.025 388.36 583.247 388.368 583.551 388.557C583.946 388.704 584.337 388.962 584.724 389.331C587.172 391.816 588.896 394.632 589.899 397.778C590.901 400.924 591.607 404.26 592.018 407.786C592.519 411.271 592.881 414.928 593.104 418.759C593.285 422.499 593.713 426.181 594.387 429.804C595.41 434.907 597.284 439.84 600.008 444.601C602.781 449.232 606.747 452.77 611.908 455.216C612.344 455.453 612.562 455.572 612.562 455.572C612.513 455.703 612.201 455.737 611.625 455.673C608.262 455.245 605.386 454.211 602.998 452.573C600.659 450.803 598.641 448.777 596.942 446.495ZM579.747 396.359C580.01 396.457 580.027 396.613 579.797 396.827C579.658 397 579.268 397.342 578.628 397.853C577.619 398.752 576.483 400.09 575.221 401.869C574.05 403.606 572.867 405.677 571.672 408.08C570.568 410.442 569.587 413.075 568.731 415.979C567.833 418.792 567.244 421.684 566.963 424.652C566.723 427.711 566.644 430.642 566.724 433.445C566.895 436.207 567.119 438.726 567.395 441.002C567.721 443.147 568.079 445.004 568.469 446.574C568.818 448.053 569.116 449.063 569.364 449.605C569.983 450.96 570.644 452.405 571.347 453.941C572.008 455.386 572.788 456.614 573.686 457.623C574.584 458.632 575.63 459.246 576.822 459.465C578.015 459.684 579.453 459.245 581.135 458.148C581.226 458.107 581.431 457.958 581.751 457.703C582.03 457.357 582.329 457.056 582.649 456.8C582.928 456.454 583.182 456.174 583.412 455.96C583.732 455.704 583.937 455.556 584.027 455.515C584.2 455.654 584.213 455.921 584.066 456.316C584.009 456.67 583.883 457.11 583.687 457.636C583.449 458.073 583.212 458.509 582.975 458.945C582.827 459.34 582.729 459.604 582.68 459.735C581.042 462.123 579.331 463.397 577.547 463.557C575.764 463.718 574.09 463.282 572.525 462.25C571.01 461.086 569.617 459.593 568.347 457.771C567.126 455.817 566.188 454.006 565.535 452.339C564.27 449.095 563.341 445.751 562.75 442.308C562.117 438.774 561.709 435.138 561.528 431.397C561.406 428.504 561.761 425.338 562.591 421.9C563.38 418.371 564.499 414.965 565.946 411.682C567.484 408.357 569.298 405.397 571.388 402.803C573.437 400.118 575.706 398.152 578.194 396.905C579.097 396.492 579.615 396.31 579.747 396.359ZM615.566 453.543C615.871 453.731 615.999 453.891 615.95 454.023C615.679 454.147 615.276 454.221 614.742 454.247C614.388 454.191 613.417 453.979 611.83 453.613C610.242 453.247 608.723 452.194 607.272 450.454C606.761 449.814 606.167 448.994 605.491 447.992C604.863 446.859 604.323 445.796 603.868 444.802C603.414 443.808 603.066 442.93 602.826 442.166C602.676 441.36 602.737 440.896 603.008 440.772C603.279 440.648 603.798 441.066 604.564 442.026C605.422 442.945 605.957 443.519 606.172 443.749C607.021 444.889 607.763 445.915 608.398 446.826C609.082 447.606 609.746 448.34 610.389 449.029C611.205 449.857 612.173 450.78 613.293 451.797C614.504 452.772 615.262 453.354 615.566 453.543ZM639.323 370.258C639.455 370.307 639.604 370.513 639.769 370.874C639.893 371.145 639.951 371.391 639.943 371.613C640.328 374.605 639.775 377.097 638.283 379.09C636.792 381.083 635.278 382.431 633.743 383.133C631.845 384 629.841 384.753 627.73 385.391C625.577 385.939 623.288 385.948 620.862 385.419C620.598 385.321 620.29 385.244 619.936 385.187C619.583 385.131 619.364 385.012 619.282 384.831C619.158 384.56 619.211 384.318 619.44 384.103C619.629 383.799 619.793 383.56 619.932 383.387C620.662 382.834 621.639 382.224 622.863 381.555C624.135 380.755 625.445 380.156 626.792 379.758C627.778 379.525 628.903 379.12 630.168 378.542C631.433 377.963 632.656 377.294 633.838 376.535C635.111 375.735 636.206 374.906 637.125 374.049C638.002 373.102 638.526 372.098 638.696 371.037C638.802 370.551 639.011 370.292 639.323 370.258ZM638.351 365.624L638.254 366.487C637.627 369.177 636.6 371.231 635.173 372.648C633.705 373.975 632.001 375.027 630.063 375.804C628.125 376.582 626.079 377.244 623.927 377.792C621.823 378.207 619.802 378.804 617.864 379.581C615.293 380.648 613.115 382.572 611.329 385.355C609.544 388.138 608.677 391.975 608.729 396.866C608.706 397.532 608.588 397.75 608.373 397.521C608.118 397.201 607.973 396.885 607.939 396.572C607.423 393.532 607.248 390.881 607.415 388.62C607.583 386.359 607.961 384.438 608.549 382.858C609.186 381.147 610.013 379.731 611.03 378.611C612.047 377.49 613.191 376.53 614.464 375.729C613.645 369.878 612.526 364.327 611.108 359.078C609.739 353.696 607.681 348.957 604.934 344.862C604.769 344.5 604.686 344.32 604.686 344.32C604.825 344.147 605.027 344.109 605.29 344.207C605.553 344.305 605.706 344.399 605.747 344.49C609.717 347.917 612.658 352.197 614.569 357.331C616.439 362.374 617.89 367.936 618.924 374.017C619.417 373.901 619.799 373.781 620.07 373.657C620.341 373.533 620.657 373.389 621.018 373.223C620.396 370.668 619.666 367.998 618.829 365.213C618.042 362.296 617.18 359.577 616.245 357.056C615.401 354.493 614.479 352.238 613.48 350.292C612.481 348.346 611.483 347 610.486 346.254C609.844 345.565 609.658 345.159 609.929 345.035C610.109 344.952 610.286 344.981 610.459 345.12C610.632 345.259 610.85 345.378 611.113 345.476C612.957 346.162 614.735 347.424 616.449 349.262C618.164 351.099 619.714 353.176 621.1 355.491C622.487 357.806 623.693 360.203 624.718 362.684C625.702 365.074 626.381 367.275 626.756 369.289L627.205 371.705C627.559 371.761 627.871 371.728 628.142 371.604C628.413 371.48 628.705 371.401 629.017 371.367C628.32 368.409 627.532 365.493 626.654 362.618C625.866 359.701 624.745 356.773 623.292 353.833C623.002 353.201 622.903 352.864 622.993 352.823C623.174 352.74 623.371 352.814 623.586 353.043C623.8 353.273 623.994 353.457 624.167 353.597C626.159 355.088 627.792 357.345 629.065 360.368C630.429 363.349 631.649 366.614 632.726 370.163C634.713 369.254 636.362 367.844 637.673 365.934C638.001 365.456 638.227 365.353 638.351 365.624ZM614.516 387.666C614.723 388.118 614.658 388.693 614.323 389.393C614.078 390.051 613.861 390.533 613.673 390.837C613.386 391.405 613.051 392.105 612.666 392.936C612.331 393.635 612.061 394.36 611.857 395.108C611.736 396.037 611.574 396.876 611.37 397.625C611.257 398.332 611.292 399.245 611.475 400.362C611.467 400.584 611.414 400.827 611.316 401.09C611.267 401.222 611.177 401.263 611.045 401.214C610.65 401.067 610.382 400.48 610.24 399.452C609.981 397.932 609.847 396.683 609.837 395.705C609.785 394.636 610.028 393.378 610.568 391.93C610.764 391.403 611.05 390.835 611.427 390.226C611.804 389.617 612.201 389.053 612.619 388.534C613.037 388.015 613.427 387.673 613.788 387.507C614.15 387.342 614.392 387.395 614.516 387.666ZM649.998 437.304C650.367 436.917 650.568 436.879 650.602 437.191C650.635 437.504 650.582 437.746 650.443 437.919C649.065 439.205 647.307 439.9 645.17 440.003C643.033 440.107 640.845 439.742 638.607 438.909C636.369 438.075 634.254 436.913 632.261 435.421C630.226 433.839 628.619 432.117 627.44 430.253C625.046 426.214 623.121 422.125 621.665 417.985C620.208 413.845 619.088 409.605 618.306 405.267L616.705 395.676C616.163 395.924 615.559 396.037 614.893 396.014C614.178 396.122 613.759 396.041 613.635 395.77C613.552 395.589 613.744 395.174 614.211 394.523C616.162 392.102 618.444 390.403 621.056 389.427C623.758 388.409 626.522 387.527 629.349 386.781C631.099 386.308 632.828 385.79 634.537 385.227C636.294 384.533 637.981 383.324 639.596 381.603C639.694 381.339 639.854 381.211 640.076 381.219C640.34 381.317 640.439 381.654 640.375 382.23C640.37 383.652 639.994 384.861 639.249 385.858C638.503 386.854 637.65 387.736 636.69 388.503C637.041 391.182 637.38 393.594 637.705 395.739C637.99 397.793 638.24 399.536 638.457 400.965C639.447 405.756 640.297 410.719 641.008 415.856C641.767 420.861 642.624 425.002 643.577 428.28C643.85 429.356 643.918 429.981 643.778 430.154C643.639 430.327 643.376 430.229 642.988 429.86C642.601 429.491 642.3 429.191 642.086 428.962C640.527 426.507 639.197 423.838 638.097 420.955C637.046 417.941 636.155 414.798 635.424 411.528C634.693 408.258 634.052 404.946 633.502 401.594C632.91 398.15 632.364 394.686 631.862 391.202C631.411 391.409 630.959 391.615 630.507 391.822C630.056 392.028 629.583 392.19 629.09 392.306C629.235 394.533 629.335 396.782 629.389 399.05C629.493 401.188 629.555 403.235 629.576 405.191C629.569 405.413 629.549 405.968 629.519 406.856C629.537 407.612 629.456 408.032 629.275 408.114C628.872 408.189 628.551 407.845 628.311 407.081C628.029 406.226 627.826 405.664 627.702 405.393C627.263 403.955 626.811 402.25 626.346 400.278C625.972 398.265 625.49 396.137 624.901 393.894C624.408 394.01 623.891 394.192 623.349 394.44C622.765 394.598 622.161 394.71 621.537 394.777C621.821 396.832 622.085 398.841 622.328 400.806C622.661 402.728 622.994 404.651 623.328 406.574C624.051 410.067 625.058 413.702 626.349 417.481C627.599 421.169 629.273 424.827 631.369 428.456C632.335 430.09 633.592 431.645 635.141 433.121C636.78 434.556 638.472 435.748 640.217 436.698C641.962 437.647 643.698 438.219 645.425 438.412C647.242 438.564 648.767 438.195 649.998 437.304ZM649.854 433.765C650.14 433.197 650.411 433.073 650.667 433.393C650.881 433.623 650.824 433.977 650.497 434.454C650.259 434.89 649.866 435.343 649.316 435.813C648.815 436.152 648.183 436.441 647.419 436.681C646.655 436.921 645.763 437.001 644.744 436.921C643.724 436.842 642.626 436.47 641.448 435.807C640.444 435.283 639.365 434.357 638.211 433.028C637.148 431.657 636.195 430.291 635.353 428.928C634.47 427.475 633.826 426.186 633.421 425.06C633.015 423.935 632.993 423.29 633.354 423.124C633.806 422.918 634.411 423.406 635.17 424.588C636.02 425.728 636.721 426.664 637.273 427.394C638.296 428.674 639.474 429.938 640.809 431.184C642.144 432.431 643.379 433.34 644.515 433.913C645.955 434.674 647.099 435.025 647.945 434.966C648.75 434.816 649.387 434.416 649.854 433.765ZM673.331 354.705C673.463 354.754 673.611 354.959 673.776 355.321C673.9 355.592 673.958 355.838 673.951 356.06C674.336 359.052 673.783 361.544 672.291 363.537C670.799 365.53 669.286 366.877 667.75 367.58C665.853 368.447 663.849 369.2 661.738 369.838C659.585 370.385 657.296 370.395 654.869 369.866C654.606 369.768 654.297 369.691 653.944 369.634C653.59 369.577 653.372 369.459 653.289 369.278C653.165 369.007 653.218 368.764 653.448 368.55C653.636 368.245 653.8 368.007 653.94 367.834C654.67 367.281 655.647 366.67 656.87 366.002C658.143 365.201 659.452 364.602 660.8 364.205C661.786 363.972 662.911 363.567 664.176 362.988C665.44 362.41 666.664 361.741 667.846 360.982C669.118 360.182 670.214 359.353 671.133 358.496C672.01 357.548 672.534 356.544 672.704 355.483C672.81 354.998 673.019 354.739 673.331 354.705ZM672.358 350.071L672.262 350.934C671.635 353.624 670.608 355.677 669.181 357.095C667.712 358.422 666.009 359.474 664.071 360.251C662.132 361.028 660.087 361.691 657.934 362.238C655.831 362.654 653.81 363.251 651.871 364.028C649.301 365.094 647.123 367.019 645.337 369.802C643.551 372.585 642.685 376.422 642.737 381.313C642.714 381.979 642.595 382.197 642.381 381.967C642.125 381.647 641.981 381.331 641.947 381.019C641.43 377.978 641.256 375.328 641.423 373.066C641.59 370.805 641.968 368.885 642.557 367.305C643.194 365.594 644.021 364.178 645.038 363.057C646.054 361.937 647.199 360.977 648.471 360.176C647.652 354.325 646.534 348.774 645.116 343.524C643.747 338.143 641.689 333.404 638.942 329.308C638.776 328.947 638.694 328.766 638.694 328.766C638.833 328.593 639.034 328.556 639.298 328.654C639.561 328.752 639.713 328.846 639.755 328.936C643.725 332.364 646.666 336.644 648.577 341.778C650.446 346.821 651.898 352.383 652.931 358.464C653.424 358.348 653.806 358.228 654.077 358.104C654.348 357.98 654.665 357.835 655.026 357.67C654.403 355.115 653.674 352.445 652.837 349.66C652.049 346.743 651.188 344.024 650.253 341.502C649.409 338.939 648.487 336.685 647.488 334.739C646.488 332.793 645.49 331.447 644.494 330.701C643.851 330.012 643.665 329.606 643.936 329.482C644.117 329.399 644.294 329.427 644.467 329.567C644.64 329.706 644.858 329.825 645.121 329.923C646.964 330.609 648.743 331.871 650.457 333.708C652.171 335.546 653.722 337.622 655.108 339.937C656.495 342.252 657.7 344.65 658.725 347.13C659.709 349.52 660.389 351.722 660.763 353.735L661.213 356.151C661.566 356.208 661.879 356.174 662.15 356.05C662.421 355.926 662.712 355.848 663.025 355.814C662.327 352.856 661.539 349.94 660.661 347.064C659.874 344.148 658.753 341.22 657.299 338.28C657.01 337.648 656.911 337.311 657.001 337.269C657.182 337.187 657.379 337.26 657.593 337.49C657.808 337.72 658.001 337.904 658.174 338.044C660.167 339.535 661.8 341.792 663.073 344.814C664.436 347.795 665.657 351.06 666.734 354.609C668.721 353.7 670.37 352.291 671.681 350.381C672.009 349.903 672.235 349.8 672.358 350.071ZM648.524 372.113C648.73 372.564 648.666 373.14 648.33 373.84C648.085 374.498 647.869 374.979 647.68 375.284C647.394 375.852 647.058 376.551 646.674 377.383C646.338 378.082 646.069 378.806 645.865 379.555C645.744 380.484 645.581 381.323 645.378 382.072C645.264 382.779 645.299 383.691 645.483 384.809C645.475 385.031 645.422 385.273 645.324 385.537C645.275 385.668 645.185 385.71 645.053 385.661C644.658 385.514 644.39 384.926 644.247 383.899C643.989 382.379 643.855 381.13 643.844 380.151C643.792 379.083 644.036 377.824 644.575 376.376C644.771 375.85 645.058 375.282 645.435 374.673C645.811 374.063 646.209 373.499 646.627 372.98C647.045 372.462 647.434 372.119 647.796 371.954C648.157 371.789 648.4 371.842 648.524 372.113ZM684.005 421.751C684.374 421.363 684.576 421.326 684.609 421.638C684.643 421.95 684.59 422.193 684.451 422.366C683.072 423.652 681.315 424.346 679.178 424.45C677.04 424.554 674.853 424.189 672.615 423.355C670.377 422.522 668.261 421.36 666.268 419.868C664.234 418.286 662.627 416.563 661.447 414.7C659.054 410.661 657.129 406.571 655.672 402.431C654.216 398.291 653.096 394.052 652.313 389.713L650.713 380.123C650.171 380.371 649.567 380.483 648.901 380.46C648.186 380.569 647.766 380.488 647.642 380.217C647.56 380.036 647.752 379.62 648.219 378.97C650.17 376.548 652.451 374.849 655.063 373.873C657.766 372.856 660.53 371.974 663.356 371.228C665.106 370.755 666.836 370.237 668.544 369.674C670.302 368.979 671.988 367.771 673.604 366.049C673.702 365.786 673.862 365.658 674.084 365.666C674.347 365.764 674.447 366.101 674.382 366.676C674.377 368.099 674.002 369.308 673.256 370.304C672.51 371.301 671.658 372.182 670.697 372.949C671.049 375.628 671.387 378.04 671.713 380.185C671.997 382.24 672.248 383.982 672.465 385.412C673.454 390.203 674.305 395.166 675.015 400.303C675.775 405.307 676.631 409.449 677.584 412.727C677.858 413.803 677.925 414.428 677.786 414.6C677.647 414.773 677.383 414.675 676.996 414.306C676.609 413.937 676.308 413.638 676.094 413.408C674.534 410.954 673.205 408.285 672.105 405.402C671.053 402.387 670.162 399.245 669.431 395.975C668.7 392.705 668.06 389.393 667.509 386.04C666.918 382.597 666.371 379.133 665.87 375.649C665.418 375.855 664.966 376.062 664.515 376.268C664.063 376.475 663.591 376.636 663.098 376.753C663.243 378.98 663.343 381.228 663.397 383.497C663.501 385.634 663.563 387.681 663.584 389.638C663.576 389.86 663.557 390.415 663.526 391.303C663.544 392.059 663.463 392.478 663.282 392.561C662.88 392.636 662.558 392.291 662.318 391.527C662.037 390.673 661.834 390.11 661.71 389.839C661.271 388.402 660.819 386.697 660.354 384.725C659.979 382.712 659.498 380.584 658.909 378.341C658.416 378.457 657.898 378.639 657.356 378.887C656.773 379.044 656.169 379.157 655.544 379.224C655.829 381.279 656.092 383.288 656.335 385.252C656.669 387.175 657.002 389.098 657.335 391.021C658.059 394.513 659.066 398.149 660.357 401.927C661.607 405.616 663.28 409.274 665.377 412.903C666.342 414.537 667.6 416.092 669.149 417.568C670.788 419.003 672.48 420.195 674.225 421.144C675.97 422.094 677.706 422.665 679.433 422.859C681.25 423.011 682.774 422.641 684.005 421.751ZM683.861 418.212C684.148 417.644 684.419 417.52 684.674 417.84C684.889 418.07 684.832 418.423 684.504 418.901C684.267 419.337 683.873 419.79 683.324 420.26C682.823 420.598 682.191 420.887 681.427 421.128C680.663 421.368 679.771 421.448 678.751 421.368C677.732 421.288 676.633 420.917 675.456 420.254C674.452 419.73 673.373 418.803 672.219 417.474C671.155 416.104 670.202 414.737 669.361 413.375C668.478 411.921 667.834 410.632 667.428 409.507C667.023 408.382 667.001 407.736 667.362 407.571C667.814 407.365 668.419 407.852 669.178 409.034C670.027 410.175 670.728 411.111 671.281 411.841C672.303 413.121 673.482 414.384 674.816 415.631C676.151 416.877 677.386 417.787 678.522 418.36C679.963 419.121 681.106 419.472 681.953 419.412C682.758 419.263 683.394 418.862 683.861 418.212Z" fill="white"/>
<path d="M516.484 623.64C521.507 621.017 527.808 619.006 535.387 617.605C542.836 615.954 549.684 616.214 555.931 618.386C560.006 619.455 560.022 620.405 555.981 621.236C552.203 622.57 548.168 623.718 543.876 624.68C539.704 625.26 535.483 626.665 531.213 628.894C515.51 636.773 506.568 647.195 504.388 660.16C502.076 672.874 504.09 686.525 510.429 701.115C514.789 711.303 520.029 721.033 526.148 730.304C532.387 739.192 538.752 748.015 545.242 756.772C551.732 765.529 557.971 774.418 563.958 783.437C570.197 792.326 575.372 801.93 579.481 812.25C580.673 815.144 581.148 816.973 580.908 817.738C580.919 818.371 580.477 818.442 579.581 817.951C578.937 817.329 578.035 816.521 576.877 815.527C575.839 814.151 574.933 813.027 574.157 812.153C567.404 802.893 560.275 793.831 552.77 784.964C545.133 775.847 537.621 766.664 530.235 757.416C522.85 748.167 515.841 738.722 509.208 729.08C502.827 719.307 497.385 708.884 492.882 697.81C490.095 690.636 488.449 683.504 487.945 676.416C487.309 669.077 487.886 662.224 489.675 655.856C491.584 649.106 494.772 642.967 499.237 637.439C503.702 631.911 509.451 627.311 516.484 623.64ZM475.389 708.382C472.601 701.208 470.819 693.508 470.041 685.285C469.132 676.81 469.496 668.629 471.131 660.743C472.887 652.475 476.178 645.004 481.004 638.329C485.949 631.272 492.566 625.58 500.854 621.252C501.105 621.121 501.799 620.919 502.935 620.646C504.19 619.99 505.261 619.591 506.145 619.449C507.281 619.175 507.789 619.23 507.669 619.612C507.8 619.863 507.052 620.573 505.425 621.743C499.299 626.539 494.201 632.078 490.129 638.359C486.057 644.64 483.132 651.281 481.353 658.283C479.575 665.284 478.878 672.52 479.263 679.99C479.767 687.078 481.408 693.893 484.184 700.434C489.473 713.014 496.336 724.933 504.771 736.191C513.074 747.198 521.629 758.073 530.435 768.818C539.493 779.431 548.113 790.432 556.297 801.821C564.601 812.828 571.397 824.621 576.687 837.201C578.676 842.236 580.169 847.849 581.165 854.041C582.16 860.233 582.331 866.377 581.678 872.471C581.275 878.435 579.792 884.164 577.227 889.658C574.531 894.901 570.742 899.276 565.861 902.784C562.105 905.384 560.281 906.177 560.39 905.161C560.619 903.763 561.536 901.846 563.141 899.41C569.56 889.666 572.632 880.551 572.356 872.065C572.332 863.447 570.199 853.853 565.958 843.282C560.931 831.204 554.265 819.662 545.961 808.656C537.909 797.518 529.48 786.577 520.673 775.832C511.867 765.088 503.378 754.338 495.205 743.583C487.153 732.445 480.547 720.711 475.389 708.382ZM574.189 922.408C584.738 916.9 592.671 910.361 597.987 902.791C603.173 894.969 606.513 886.673 608.006 877.903C609.369 868.881 609.142 859.57 607.326 849.971C605.379 840.12 602.422 830.477 598.455 821.042C593.558 809.215 587.406 798.044 579.998 787.528C572.59 777.013 564.997 766.754 557.217 756.752C549.558 746.368 542.025 735.918 534.617 725.403C527.209 714.887 520.991 703.591 515.963 691.513C510.936 679.435 509.665 668.432 512.153 658.503C514.891 648.443 522.414 640.201 534.721 633.775C538.99 631.546 544.784 629.48 552.101 627.577C559.669 625.544 566.309 624.794 572.021 625.327C578.116 625.981 578.198 627.056 572.268 628.554C568.86 629.375 564.509 630.528 559.212 632.015C553.915 633.502 550.011 634.901 547.5 636.212C537.704 641.327 530.405 647.854 525.602 655.796C520.799 663.737 520.714 673.37 525.348 684.695C530.125 696.904 536.408 708.326 544.198 718.962C551.858 729.346 559.833 739.725 568.126 750.098C576.419 760.471 584.335 771.041 591.874 781.807C599.664 792.443 606.073 803.799 611.101 815.877C615.33 825.815 618.298 836.091 620.005 846.707C621.712 857.322 621.704 867.714 619.982 877.883C618.259 888.051 614.434 897.56 608.506 906.408C602.698 914.874 594.269 921.992 583.218 927.762C580.204 929.336 576.049 930.866 570.752 932.353C565.455 933.84 560.028 935.075 554.469 936.06C548.779 936.794 543.209 937.145 537.759 937.113C532.429 936.7 528.038 935.636 524.586 933.923C521.015 932.591 521.44 931.57 525.863 930.859C531.313 930.89 537.905 930.965 545.637 931.082C553.621 931.069 563.138 928.178 574.189 922.408ZM565.044 910.402C571.323 907.124 576.576 903.103 580.801 898.34C585.026 893.577 589.049 888.12 592.87 881.97L593.46 883.1C594.64 885.361 594.565 888.277 593.233 891.849C592.022 895.038 590.117 898.43 587.519 902.024C584.92 905.618 581.623 909.097 577.627 912.462C573.882 915.696 569.749 918.493 565.228 920.854C563.47 921.772 560.952 922.766 557.676 923.838C554.269 924.658 550.67 925.418 546.881 926.118C543.211 926.436 539.602 926.563 536.052 926.498C532.502 926.434 529.701 925.659 527.647 924.174C523.311 922.603 521.579 921.429 522.453 920.654C523.195 919.627 524.773 919.282 527.187 919.62C531.861 918.778 537.3 918.175 543.503 917.813C549.827 917.069 557.007 914.598 565.044 910.402Z" fill="white"/>
<path d="M685.089 752.478C686.225 753.051 687.283 753.932 688.264 755.122C689.335 756.27 690.198 757.678 690.851 759.345C691.463 760.922 691.845 762.714 691.998 764.719C692.151 766.725 691.921 768.85 691.31 771.096C690.095 775.365 688.299 779.081 685.922 782.244C683.595 785.274 681.166 787.368 678.637 788.525C677.101 789.227 676.977 788.956 678.265 787.712C678.954 787.069 679.717 786.229 680.553 785.191C681.438 784.022 682.327 782.741 683.22 781.35C684.071 779.868 684.861 778.251 685.588 776.498C686.406 774.704 687.006 772.791 687.388 770.76C688.038 767.404 687.961 764.49 687.158 762.017C686.404 759.413 685.105 757.768 683.262 757.082C681.682 756.493 680.149 756.485 678.662 757.055C677.134 757.536 675.318 759.295 673.212 762.333C671.295 765.067 669.813 768.038 668.769 771.247C667.724 774.456 666.876 777.738 666.227 781.093C665.811 782.812 665.423 783.755 665.062 783.92C664.791 784.044 664.554 783.169 664.353 781.295C663.991 777.637 664.138 774.02 664.796 770.442C665.544 766.823 666.839 763.446 668.682 760.309C670.049 758.045 671.422 756.271 672.8 754.985C674.269 753.658 675.701 752.73 677.097 752.2C678.584 751.63 680.014 751.413 681.387 751.549C682.719 751.595 683.953 751.905 685.089 752.478ZM696.744 758.616C697.374 760.95 697.634 763.07 697.523 764.978C697.461 766.753 697.182 768.411 696.684 769.949C696.235 771.356 695.658 772.603 694.954 773.689C694.34 774.735 693.795 775.694 693.32 776.566C693.083 777.003 692.833 777.172 692.569 777.074C692.306 776.976 692.297 776.598 692.542 775.939C693.548 773.841 694.348 771.29 694.941 768.288C695.583 765.155 695.309 762.167 694.119 759.325C691.929 754.538 689.082 751.416 685.576 749.961C682.071 748.506 678.639 748.765 675.281 750.737C671.882 752.619 668.843 755.648 666.165 759.822C664.428 762.473 663.086 765.271 662.14 768.216C661.242 771.03 660.653 773.921 660.372 776.89C660.05 779.768 659.995 782.633 660.207 785.485C660.509 788.296 661.037 791.003 661.792 793.608C662.504 796.122 663.3 798.816 664.178 801.691C665.146 804.525 666.365 807.19 667.834 809.686C669.394 812.14 671.409 814.277 673.879 816.097C676.308 817.826 679.361 818.887 683.036 819.282C683.612 819.346 684.146 819.32 684.639 819.204C685.223 819.046 685.535 819.013 685.576 819.103C685.659 819.284 685.474 819.477 685.023 819.684C684.612 819.981 684.095 820.163 683.47 820.23C681.005 820.811 678.65 820.796 676.404 820.185C674.208 819.442 672.199 818.394 670.379 817.042C668.559 815.69 666.924 814.144 665.473 812.404C664.022 810.665 662.88 809.003 662.046 807.418C658.24 800.53 656.011 793.029 655.359 784.917C655.24 783.223 655.174 781.287 655.161 779.109C655.238 776.889 655.495 774.587 655.934 772.202C656.331 769.726 656.995 767.238 657.927 764.736C658.817 762.145 660.036 759.676 661.584 757.329C663.083 755.114 664.818 753.174 666.787 751.509C668.756 749.844 670.89 748.54 673.19 747.597C675.448 746.565 677.757 746 680.116 745.904C682.434 745.718 684.712 746.042 686.95 746.875C688.966 747.701 690.852 749.077 692.607 751.005C694.453 752.892 695.832 755.429 696.744 758.616ZM682.182 759.378C683.845 760.147 684.889 762.072 685.315 765.154C685.701 768.145 685.022 771.678 683.281 775.751C682.357 778.031 681.355 780.018 680.273 781.714C679.151 783.32 677.58 785.021 675.562 786.818C676.139 790.705 677.056 794.382 678.313 797.848C679.571 801.315 680.9 803.983 682.302 805.854C682.765 806.626 683.407 807.315 684.231 807.922C685.103 808.396 686.095 808.653 687.205 808.692C688.363 808.598 689.69 808.156 691.184 807.363C692.679 806.57 694.349 805.206 696.194 803.27C696.702 802.709 697.043 802.499 697.216 802.638C697.438 802.646 697.291 803.041 696.775 803.823C695.727 805.831 694.424 807.52 692.865 808.888C691.265 810.166 689.611 811.086 687.902 811.649C686.284 812.171 684.681 812.249 683.093 811.883C681.596 811.475 680.316 810.586 679.252 809.216C677.083 806.384 675.259 803.232 673.78 799.758C672.3 796.284 671.248 792.669 670.622 788.913C670.087 785.117 670.017 781.38 670.411 777.705C670.855 773.897 671.911 770.356 673.58 767.08C676.682 760.965 679.549 758.397 682.182 759.378ZM700.596 803.222C700.377 804.415 699.977 805.69 699.396 807.048C698.865 808.274 698.132 809.538 697.198 810.839C696.313 812.008 695.296 813.128 694.148 814.2C693.089 815.23 691.883 816.055 690.528 816.675C688.179 817.749 685.739 818.264 683.207 818.221C680.723 818.046 678.217 816.625 675.687 813.959C675.341 813.68 675.106 813.406 674.982 813.135C674.817 812.773 674.825 812.551 675.005 812.469C675.284 812.123 675.707 812.093 676.275 812.379C676.802 812.575 677.349 812.817 677.917 813.103C679.448 813.823 681.187 814.283 683.136 814.484C685.175 814.644 686.918 814.393 688.363 813.732C691.073 812.493 693.236 811.012 694.851 809.29C696.467 807.568 697.868 805.617 699.055 803.436C699.383 802.958 699.756 802.46 700.174 801.941C700.682 801.381 700.823 801.808 700.596 803.222ZM680.603 764.524C679.912 763.966 678.87 765.152 677.48 768.082C676.145 770.658 675.342 773.32 675.069 776.066C674.845 778.681 674.859 781.46 675.113 784.402C676.457 782.804 677.625 781.178 678.616 779.523C679.565 777.778 680.445 776.12 681.256 774.547C682.074 772.753 682.365 770.763 682.13 768.577C681.894 766.391 681.386 765.04 680.603 764.524ZM728.488 726.731C728.62 726.78 728.768 726.985 728.933 727.346C729.057 727.617 729.115 727.864 729.108 728.086C729.493 731.077 728.939 733.57 727.448 735.563C725.956 737.556 724.443 738.903 722.907 739.606C721.01 740.473 719.006 741.226 716.894 741.864C714.742 742.411 712.452 742.421 710.026 741.892C709.763 741.794 709.454 741.717 709.101 741.66C708.747 741.603 708.529 741.484 708.446 741.304C708.322 741.033 708.375 740.79 708.605 740.576C708.793 740.271 708.957 740.032 709.096 739.86C709.827 739.307 710.804 738.696 712.027 738.028C713.299 737.227 714.609 736.628 715.957 736.23C716.943 735.998 718.068 735.593 719.333 735.014C720.597 734.436 721.821 733.767 723.003 733.008C724.275 732.208 725.371 731.379 726.289 730.522C727.167 729.574 727.691 728.57 727.861 727.509C727.967 727.024 728.176 726.765 728.488 726.731ZM727.515 722.097L727.419 722.96C726.792 725.65 725.765 727.703 724.338 729.121C722.869 730.447 721.166 731.5 719.228 732.277C717.289 733.054 715.244 733.717 713.091 734.264C710.988 734.68 708.967 735.277 707.028 736.054C704.458 737.12 702.279 739.045 700.494 741.828C698.708 744.611 697.841 748.448 697.894 753.339C697.871 754.005 697.752 754.223 697.538 753.993C697.282 753.673 697.138 753.357 697.104 753.045C696.587 750.004 696.412 747.354 696.58 745.092C696.747 742.831 697.125 740.911 697.713 739.331C698.351 737.62 699.178 736.204 700.194 735.083C701.211 733.963 702.356 733.002 703.628 732.202C702.809 726.351 701.69 720.8 700.272 715.55C698.903 710.169 696.845 705.43 694.098 701.334C693.933 700.973 693.851 700.792 693.851 700.792C693.99 700.619 694.191 700.582 694.455 700.68C694.718 700.778 694.87 700.872 694.911 700.962C698.882 704.389 701.823 708.67 703.733 713.803C705.603 718.847 707.055 724.409 708.088 730.49C708.581 730.374 708.963 730.254 709.234 730.13C709.505 730.006 709.821 729.861 710.183 729.696C709.56 727.141 708.831 724.471 707.994 721.686C707.206 718.769 706.345 716.05 705.41 713.528C704.565 710.965 703.644 708.711 702.644 706.765C701.645 704.819 700.647 703.473 699.651 702.727C699.008 702.038 698.822 701.631 699.093 701.508C699.274 701.425 699.451 701.453 699.623 701.593C699.796 701.732 700.015 701.851 700.278 701.949C702.121 702.635 703.9 703.897 705.614 705.734C707.328 707.572 708.878 709.648 710.265 711.963C711.651 714.278 712.857 716.676 713.882 719.156C714.866 721.546 715.545 723.748 715.92 725.761L716.369 728.177C716.723 728.234 717.035 728.2 717.306 728.076C717.577 727.952 717.869 727.874 718.181 727.84C717.484 724.882 716.696 721.966 715.818 719.09C715.03 716.174 713.91 713.245 712.456 710.306C712.167 709.673 712.067 709.337 712.158 709.295C712.338 709.213 712.536 709.286 712.75 709.516C712.964 709.746 713.158 709.93 713.331 710.069C715.324 711.561 716.957 713.818 718.23 716.84C719.593 719.821 720.813 723.086 721.89 726.635C723.878 725.726 725.527 724.317 726.838 722.406C727.165 721.929 727.391 721.826 727.515 722.097ZM703.681 744.139C703.887 744.59 703.823 745.166 703.487 745.866C703.242 746.524 703.025 747.005 702.837 747.31C702.551 747.878 702.215 748.577 701.831 749.408C701.495 750.108 701.226 750.832 701.022 751.581C700.901 752.51 700.738 753.349 700.534 754.097C700.421 754.805 700.456 755.717 700.639 756.835C700.632 757.057 700.579 757.299 700.481 757.563C700.432 757.694 700.342 757.736 700.21 757.687C699.815 757.54 699.546 756.952 699.404 755.925C699.146 754.405 699.011 753.156 699.001 752.177C698.949 751.109 699.193 749.85 699.732 748.402C699.928 747.876 700.215 747.308 700.591 746.698C700.968 746.089 701.365 745.525 701.784 745.006C702.202 744.487 702.591 744.145 702.953 743.98C703.314 743.815 703.557 743.868 703.681 744.139ZM739.162 793.776C739.531 793.389 739.732 793.352 739.766 793.664C739.8 793.976 739.747 794.219 739.607 794.392C738.229 795.678 736.472 796.372 734.334 796.476C732.197 796.58 730.01 796.215 727.772 795.381C725.534 794.548 723.418 793.385 721.425 791.894C719.391 790.312 717.784 788.589 716.604 786.726C714.211 782.687 712.286 778.597 710.829 774.457C709.373 770.317 708.253 766.078 707.47 761.739L705.869 752.149C705.327 752.397 704.723 752.509 704.058 752.486C703.343 752.595 702.923 752.513 702.799 752.242C702.717 752.062 702.909 751.646 703.376 750.996C705.327 748.574 707.608 746.875 710.22 745.899C712.923 744.882 715.687 744 718.513 743.253C720.263 742.781 721.992 742.263 723.701 741.7C725.459 741.005 727.145 739.797 728.761 738.075C728.859 737.812 729.019 737.684 729.241 737.692C729.504 737.79 729.604 738.127 729.539 738.702C729.534 740.124 729.159 741.334 728.413 742.33C727.667 743.327 726.814 744.208 725.854 744.975C726.206 747.654 726.544 750.066 726.87 752.211C727.154 754.266 727.405 756.008 727.622 757.438C728.611 762.229 729.461 767.192 730.172 772.328C730.932 777.333 731.788 781.475 732.741 784.752C733.015 785.829 733.082 786.453 732.943 786.626C732.803 786.799 732.54 786.701 732.153 786.332C731.766 785.963 731.465 785.664 731.251 785.434C729.691 782.98 728.361 780.311 727.261 777.428C726.21 774.413 725.319 771.271 724.588 768.001C723.857 764.731 723.217 761.419 722.666 758.066C722.074 754.623 721.528 751.159 721.027 747.675C720.575 747.881 720.123 748.088 719.672 748.294C719.22 748.501 718.748 748.662 718.255 748.778C718.4 751.006 718.499 753.254 718.554 755.523C718.658 757.66 718.72 759.707 718.741 761.664C718.733 761.886 718.714 762.441 718.683 763.329C718.701 764.085 718.62 764.504 718.439 764.587C718.037 764.662 717.715 764.317 717.475 763.553C717.194 762.699 716.991 762.136 716.867 761.865C716.428 760.428 715.976 758.723 715.511 756.751C715.136 754.738 714.655 752.61 714.066 750.367C713.573 750.483 713.055 750.665 712.513 750.913C711.93 751.07 711.326 751.183 710.701 751.25C710.986 753.305 711.249 755.314 711.492 757.278C711.825 759.201 712.159 761.124 712.492 763.047C713.215 766.539 714.223 770.175 715.514 773.953C716.764 777.641 718.437 781.3 720.533 784.929C721.499 786.562 722.756 788.117 724.305 789.594C725.945 791.028 727.637 792.221 729.382 793.17C731.127 794.12 732.863 794.691 734.59 794.885C736.407 795.037 737.931 794.667 739.162 793.776ZM739.018 790.238C739.305 789.67 739.576 789.546 739.831 789.866C740.045 790.096 739.989 790.449 739.661 790.927C739.424 791.363 739.03 791.816 738.48 792.286C737.98 792.624 737.347 792.913 736.583 793.154C735.819 793.394 734.928 793.474 733.908 793.394C732.888 793.314 731.79 792.943 730.613 792.28C729.609 791.756 728.53 790.829 727.376 789.5C726.312 788.13 725.359 786.763 724.518 785.4C723.635 783.947 722.99 782.658 722.585 781.533C722.18 780.408 722.157 779.762 722.519 779.597C722.97 779.39 723.576 779.878 724.335 781.06C725.184 782.201 725.885 783.137 726.438 783.867C727.46 785.147 728.639 786.41 729.973 787.657C731.308 788.903 732.543 789.813 733.679 790.386C735.119 791.147 736.263 791.498 737.11 791.438C737.915 791.288 738.551 790.888 739.018 790.238ZM777.585 720.169C779.651 724.686 781.188 729.718 782.195 735.264C783.252 740.68 783.881 746.235 784.084 751.932C784.286 757.629 784.069 763.244 783.432 768.778C782.845 774.181 781.898 779.037 780.593 783.348C780.095 784.887 779.735 785.652 779.513 785.644C779.291 785.637 779.071 784.918 778.854 783.488C778.735 781.795 778.669 779.859 778.656 777.68C778.733 775.46 778.785 773.306 778.814 771.218C778.891 768.998 778.964 766.89 779.033 764.892C779.193 762.853 779.296 761.167 779.342 759.835C779.355 758.191 779.272 756.099 779.093 753.559C778.873 750.929 778.505 748.093 777.988 745.053C777.562 741.971 777.028 738.774 776.388 735.463C775.747 732.151 775.078 729.017 774.38 726.059C773.642 723.01 772.891 720.295 772.13 717.913C771.417 715.399 770.685 713.44 769.933 712.036C769.099 710.451 768.624 709.412 768.508 708.919C768.441 708.295 768.539 708.031 768.802 708.13C769.024 708.137 769.329 708.326 769.716 708.695C770.193 709.022 770.605 709.326 770.951 709.604C772.41 711.122 773.746 712.968 774.959 715.144C776.173 717.32 777.048 718.995 777.585 720.169ZM767.996 769.776C767.694 770.788 767.145 771.858 766.351 772.986C765.556 774.114 764.662 774.905 763.668 775.36C761.5 776.351 759.404 776.545 757.38 775.941C755.447 775.297 753.66 774.257 752.021 772.822C750.341 771.297 748.844 769.578 747.533 767.665C746.312 765.712 745.329 763.922 744.586 762.296C743.47 759.857 742.415 756.953 741.421 753.585C740.476 750.085 739.777 746.527 739.324 742.911C738.921 739.163 738.802 735.558 738.966 732.097C739.18 728.504 739.933 725.374 741.226 722.707C741.603 722.098 741.955 721.555 742.283 721.077C742.569 720.509 742.64 721.023 742.496 722.618C742.408 723.86 742.259 724.966 742.047 725.936C741.926 726.866 741.937 727.844 742.079 728.871C741.832 732.152 741.917 735.444 742.336 738.748C742.845 742.011 743.51 745.256 744.332 748.485C745.336 752.832 746.748 756.992 748.566 760.967C749.227 762.412 749.995 763.973 750.87 765.648C751.836 767.281 752.941 768.742 754.185 770.03C755.429 771.318 756.841 772.256 758.421 772.844C760.05 773.3 761.858 773.074 763.845 772.165C764.387 771.918 764.958 771.493 765.557 770.891C766.155 770.29 766.618 769.75 766.946 769.273C767.545 768.671 767.886 768.461 767.968 768.641C768.051 768.822 768.06 769.2 767.996 769.776ZM782.162 720.861C783.143 722.051 784.047 723.549 784.873 725.356C786.567 729.06 787.904 733.418 788.886 738.43C789.827 743.353 790.488 748.621 790.871 754.235C791.344 759.807 791.477 765.59 791.269 771.584C791.151 777.536 790.815 783.37 790.261 789.084C789.798 794.758 789.099 800.157 788.166 805.28C787.273 810.495 786.269 815.105 785.152 819.111C785.103 819.242 785.005 819.506 784.858 819.901C784.801 820.254 784.679 820.583 784.49 820.888C784.433 821.242 784.335 821.505 784.196 821.678C784.057 821.851 783.904 821.757 783.739 821.395C783.656 821.215 783.641 819.747 783.692 816.993C783.875 814.288 784.06 810.872 784.248 806.745C784.477 802.708 784.697 798.292 784.908 793.499C785.25 788.755 785.564 784.187 785.85 779.797C786.136 775.406 786.336 771.546 786.452 768.216C786.658 764.845 786.759 762.56 786.757 761.359C786.732 754.38 786.301 747.586 785.464 740.979C784.676 734.239 783.217 727.588 781.089 721.024C780.849 720.26 780.729 719.878 780.729 719.878C780.778 719.747 781.256 720.074 782.162 720.861ZM768.768 714.863C771.082 719.921 772.714 725.401 773.665 731.301C774.665 737.07 775.283 742.959 775.519 748.968C775.755 754.977 775.703 760.953 775.363 766.898C775.072 772.711 774.727 778.166 774.328 783.264C773.734 792.711 773.813 801.96 774.565 811.009C775.359 820.149 777.156 829.212 779.955 838.199C780.229 839.276 780.28 839.744 780.107 839.605C780.016 839.646 779.757 839.437 779.328 838.978C779.031 838.567 778.693 838.067 778.314 837.476C777.975 836.975 777.617 836.429 777.237 835.838C776.948 835.206 776.7 834.664 776.493 834.212C774.634 830.147 773.206 825.83 772.209 821.262C771.212 816.693 770.527 812.091 770.155 807.455C769.782 802.82 769.586 798.212 769.568 793.633C769.639 789.013 769.814 784.619 770.092 780.45L766.433 782.123C763.723 783.363 761.086 783.804 758.52 783.449C755.954 783.093 753.564 782.165 751.349 780.666C749.134 779.167 747.025 777.182 745.021 774.712C743.108 772.201 741.449 769.41 740.045 766.339C739.508 765.164 738.899 763.476 738.22 761.275C737.5 758.983 736.894 756.584 736.403 754.077C735.871 751.481 735.516 748.913 735.337 746.373C735.117 743.743 735.194 741.523 735.568 739.713C735.837 738.389 736.057 737.797 736.23 737.936C736.403 738.075 736.581 738.704 736.765 739.821C737.16 743.791 737.844 747.793 738.815 751.827C739.876 755.82 741.234 759.623 742.886 763.237C743.836 765.315 745.005 767.511 746.391 769.826C747.778 772.141 749.352 774.152 751.116 775.857C752.928 777.432 754.957 778.524 757.203 779.136C759.448 779.747 761.971 779.412 764.772 778.132C766.759 777.223 768.256 775.719 769.262 773.62C770.269 771.522 770.95 769.189 771.305 766.624C771.751 764.017 771.934 761.312 771.854 758.508C771.864 755.664 771.821 753.062 771.725 750.703C771.4 752.381 770.894 754.141 770.208 755.984C769.571 757.696 768.802 759.358 767.901 760.971C767.001 762.585 766.017 764.018 764.952 765.27C763.886 766.522 762.721 767.437 761.456 768.015C760.191 768.594 759.012 768.642 757.917 768.159C756.823 767.677 755.781 766.952 754.792 765.984C753.852 764.884 753.048 763.723 752.38 762.5C751.711 761.276 751.149 760.168 750.695 759.174C749.207 755.922 747.901 752.587 746.775 749.17C745.698 745.621 744.888 742.059 744.345 738.484C743.761 734.819 743.531 731.211 743.654 727.659C743.827 723.976 744.439 720.419 745.492 716.988C745.548 716.635 745.671 716.305 745.859 716.001C746.006 715.606 746.15 715.322 746.289 715.149C746.519 714.935 746.675 714.918 746.757 715.099C746.799 715.189 746.783 715.633 746.711 716.43C746.322 722.507 746.633 728.918 747.644 735.665C748.744 742.371 750.575 748.524 753.137 754.125C753.385 754.667 753.798 755.57 754.376 756.835C755.004 757.968 755.697 759.125 756.456 760.307C757.305 761.448 758.183 762.412 759.089 763.199C760.045 763.855 760.929 763.997 761.742 763.625C762.013 763.501 762.312 763.2 762.64 762.722C765.566 759.09 767.575 755.004 768.666 750.463C769.757 745.923 770.231 741.228 770.088 736.378C769.904 731.437 769.182 726.634 767.922 721.967C766.71 717.169 765.241 712.762 763.513 708.746C762.852 707.301 762.591 706.492 762.731 706.319C762.87 706.146 763.538 706.769 764.733 708.188C766.473 710.56 767.818 712.785 768.768 714.863ZM779.575 806.916C779.864 807.548 780.113 808.69 780.322 810.342C780.622 811.953 780.873 813.695 781.074 815.569C781.276 817.443 781.457 819.271 781.617 821.055C781.778 822.839 781.908 824.199 782.009 825.136C782.195 827.454 782.542 829.644 783.048 831.706C783.595 833.859 784.118 836.077 784.617 838.361C784.7 838.542 784.778 838.834 784.853 839.236C784.928 839.639 784.83 839.902 784.559 840.026C784.379 840.109 784.14 839.945 783.843 839.535C783.546 839.124 783.356 838.829 783.274 838.648C782.762 838.008 782.172 837.076 781.504 835.853C780.925 834.588 780.516 833.574 780.276 832.81C779.514 830.428 778.895 827.761 778.42 824.811C777.986 821.951 777.659 819.206 777.439 816.576C777.351 813.995 777.428 811.775 777.67 809.917C777.912 808.058 778.35 806.984 778.982 806.695C779.253 806.571 779.451 806.645 779.575 806.916ZM835.087 693.052C836.017 696.996 836.45 701.167 836.386 705.565C836.322 709.963 836.245 714.095 836.156 717.959C836.148 718.181 836.067 718.6 835.912 719.217C835.848 719.793 835.725 720.122 835.544 720.204C835.232 720.238 834.973 720.029 834.766 719.577C834.518 719.035 834.353 718.674 834.27 718.493C833.989 717.639 833.69 716.629 833.375 715.462C833.109 714.164 832.798 712.886 832.442 711.629C832.044 710.282 831.688 709.025 831.372 707.858C831.106 706.56 830.902 705.397 830.76 704.37C830.168 700.927 829.648 697.997 829.198 695.581C828.707 693.075 828.184 690.856 827.629 688.926C827.074 686.995 826.424 685.217 825.681 683.591C825.027 681.923 824.131 680.203 822.993 678.43C822.572 677.749 822.411 677.277 822.509 677.013C822.648 676.84 822.915 676.827 823.31 676.974C823.705 677.121 824.055 677.289 824.359 677.478C827.011 679.214 829.289 681.449 831.194 684.182C833.058 686.825 834.356 689.782 835.087 693.052ZM834.187 682.486C836.146 683.665 837.766 685.655 839.047 688.455C840.328 691.256 841.379 694.27 842.2 697.499C842.98 700.638 843.583 703.748 844.01 706.83C844.436 709.912 844.84 712.348 845.223 714.14C845.946 717.632 846.398 721.248 846.58 724.988C846.761 728.728 846.958 732.024 847.17 734.876C847.204 735.189 847.213 735.567 847.197 736.011C847.14 736.364 847.022 736.583 846.841 736.665C846.66 736.748 846.487 736.609 846.322 736.247C846.157 735.886 846.012 735.57 845.888 735.299C843.345 730.454 841.677 725.373 840.884 720.056C840.049 714.649 839.284 709.155 838.589 703.575C838.129 700.181 837.603 696.762 837.011 693.319C836.378 689.785 835.17 686.187 833.385 682.525C833.22 682.163 833.183 681.962 833.273 681.921L834.187 682.486ZM820.396 686.008C815.919 690.786 812.709 696.187 810.766 702.209C808.872 708.099 808.085 714.139 808.403 720.329C808.574 723.091 808.868 725.524 809.283 727.627C809.658 729.64 810.206 731.793 810.926 734.085C811.042 734.578 811.384 734.968 811.952 735.254C812.52 735.54 812.882 735.375 813.036 734.758C813.754 732.027 814.674 728.548 815.799 724.32C816.924 720.091 817.966 715.683 818.925 711.093C819.885 706.504 820.552 701.993 820.929 697.561C821.395 693.088 821.217 689.237 820.396 686.008ZM832.326 736.095C831.838 738.611 831.334 740.972 830.813 743.176C830.292 745.381 829.553 747.467 828.596 749.434C827.597 751.31 826.314 753.044 824.748 754.634C823.181 756.224 821.199 757.622 818.802 758.828C814.819 760.868 811.228 761.254 808.027 759.988C804.916 758.679 802.211 756.585 799.91 753.705C797.61 750.825 795.765 747.627 794.376 744.112C793.036 740.465 792.211 737.347 791.9 734.758C791.448 731.142 791.259 727.624 791.333 724.204C791.457 720.652 791.77 717.396 792.273 714.435C792.824 711.343 793.542 708.612 794.424 706.242C795.355 703.741 796.427 701.667 797.64 700.02C797.731 699.978 797.87 699.805 798.058 699.501C798.337 699.155 798.538 699.117 798.662 699.388C798.753 699.347 798.769 699.503 798.713 699.857C798.656 700.21 798.579 700.519 798.481 700.782C796.014 707.809 794.785 715.033 794.794 722.457C794.894 729.839 796.25 736.865 798.863 743.534C799.517 745.201 800.367 746.942 801.416 748.757C802.554 750.53 803.832 752.13 805.25 753.557C806.716 754.853 808.35 755.798 810.152 756.394C811.912 756.9 813.876 756.657 816.044 755.665C817.761 754.88 819.218 753.886 820.415 752.683C821.571 751.39 822.575 750.002 823.427 748.521C824.237 746.949 824.891 745.393 825.389 743.855C825.936 742.185 826.389 740.667 826.747 739.301C827.521 736.217 828.118 733.104 828.538 729.962C827.712 728.156 826.997 726.353 826.392 724.554C825.878 722.714 825.455 720.832 825.121 718.909C824.814 717.521 824.585 716.424 824.436 715.618C824.335 714.681 824.23 713.855 824.121 713.14C824.062 712.294 823.957 711.468 823.807 710.663C823.707 709.726 823.593 708.521 823.466 707.05C823.178 710.241 822.827 713.295 822.415 716.215C822.051 719.003 821.531 721.807 820.856 724.628C820.229 727.318 819.512 730.049 818.704 732.821C817.946 735.462 817.027 738.231 815.949 741.127C815.116 743.365 814.078 744.44 812.837 744.353C811.595 744.265 810.43 743.269 809.34 741.364C807.755 738.375 806.527 735.332 805.656 732.235C804.876 729.097 804.396 725.657 804.214 721.917C804.067 718.489 804.231 715.028 804.708 711.533C805.275 707.997 806.192 704.628 807.459 701.427C808.775 698.095 810.482 695.02 812.58 692.204C814.637 689.297 817.122 686.85 820.036 684.862C819.762 683.785 819.505 682.865 819.265 682.101C819.115 681.296 818.92 680.511 818.68 679.747C818.406 678.671 818.269 678.133 818.269 678.133C818.409 677.96 818.631 677.968 818.935 678.156C819.33 678.303 819.721 678.561 820.108 678.93C822.556 681.415 824.281 684.231 825.283 687.377C826.285 690.524 826.991 693.86 827.402 697.386C827.903 700.87 828.265 704.528 828.488 708.358C828.669 712.098 829.097 715.78 829.771 719.404C830.794 724.507 832.668 729.439 835.392 734.201C838.165 738.831 842.131 742.369 847.292 744.815C847.728 745.053 847.946 745.171 847.946 745.171C847.897 745.303 847.585 745.337 847.009 745.272C843.646 744.844 840.77 743.811 838.382 742.172C836.043 740.402 834.025 738.376 832.326 736.095ZM815.131 685.958C815.394 686.056 815.411 686.212 815.181 686.427C815.042 686.6 814.652 686.942 814.012 687.453C813.003 688.351 811.867 689.69 810.605 691.469C809.434 693.206 808.251 695.276 807.056 697.679C805.952 700.041 804.971 702.674 804.115 705.578C803.217 708.392 802.628 711.283 802.347 714.251C802.107 717.31 802.028 720.241 802.108 723.044C802.279 725.806 802.503 728.325 802.779 730.602C803.105 732.747 803.463 734.604 803.853 736.173C804.202 737.652 804.5 738.662 804.748 739.204C805.367 740.56 806.028 742.005 806.731 743.541C807.392 744.986 808.172 746.213 809.07 747.222C809.968 748.231 811.014 748.845 812.206 749.065C813.399 749.284 814.837 748.845 816.519 747.747C816.61 747.706 816.815 747.558 817.135 747.302C817.414 746.956 817.713 746.655 818.033 746.4C818.312 746.054 818.566 745.774 818.796 745.56C819.116 745.304 819.321 745.156 819.411 745.114C819.584 745.254 819.597 745.521 819.45 745.916C819.393 746.269 819.267 746.709 819.071 747.236C818.833 747.672 818.596 748.108 818.359 748.545C818.211 748.94 818.113 749.203 818.064 749.335C816.426 751.723 814.715 752.997 812.931 753.157C811.148 753.317 809.474 752.881 807.909 751.849C806.394 750.685 805.001 749.192 803.731 747.37C802.51 745.416 801.572 743.606 800.919 741.939C799.654 738.694 798.725 735.351 798.134 731.907C797.501 728.374 797.093 724.737 796.912 720.997C796.79 718.103 797.145 714.938 797.975 711.499C798.764 707.971 799.883 704.565 801.33 701.281C802.868 697.956 804.682 694.997 806.772 692.402C808.821 689.718 811.09 687.752 813.578 686.504C814.481 686.091 814.999 685.909 815.131 685.958ZM850.95 743.142C851.255 743.33 851.383 743.49 851.334 743.622C851.063 743.746 850.66 743.821 850.126 743.847C849.772 743.79 848.801 743.579 847.214 743.212C845.626 742.846 844.107 741.793 842.656 740.054C842.145 739.414 841.551 738.593 840.875 737.592C840.247 736.459 839.707 735.395 839.252 734.402C838.798 733.408 838.45 732.529 838.21 731.765C838.06 730.96 838.121 730.495 838.392 730.371C838.663 730.247 839.182 730.665 839.949 731.625C840.806 732.544 841.341 733.118 841.556 733.348C842.405 734.489 843.147 735.515 843.782 736.426C844.467 737.205 845.13 737.939 845.773 738.628C846.589 739.457 847.557 740.379 848.677 741.396C849.888 742.372 850.646 742.954 850.95 743.142ZM890.125 640.191C891.463 646.46 892.395 652.915 892.92 659.557C893.494 666.066 893.944 672.305 894.271 678.272C894.387 678.765 894.43 679.456 894.399 680.344C894.368 681.232 894.085 681.689 893.551 681.715C893.461 681.756 893.23 681.37 892.858 680.557C892.486 679.744 892.283 679.181 892.25 678.869C891.852 677.522 891.396 675.928 890.882 674.088C890.417 672.116 889.952 670.144 889.487 668.172C889.113 666.159 888.759 664.191 888.425 662.268C888.051 660.254 887.755 658.533 887.538 657.103C887.561 656.437 887.32 655.073 886.813 653.011C886.397 650.907 885.837 648.487 885.132 645.751C884.385 642.925 883.511 639.939 882.509 636.792C881.507 633.646 880.431 630.697 879.282 627.946C878.092 625.104 876.89 622.596 875.676 620.42C874.553 618.203 873.428 616.697 872.3 615.902C871.435 615.205 871.117 614.75 871.347 614.536C871.708 614.37 872.218 614.41 872.876 614.655C874.851 615.391 876.737 616.767 878.534 618.786C880.379 620.672 882.103 622.888 883.703 625.432C885.263 627.887 886.597 630.445 887.704 633.106C888.812 635.767 889.619 638.128 890.125 640.191ZM886.77 623.539C888.499 624.932 890.053 626.897 891.432 629.435C892.811 631.972 894.067 634.838 895.201 638.033C896.293 641.138 897.267 644.461 898.122 648.002C899.026 651.412 899.798 654.773 900.439 658.084C901.038 661.305 901.555 664.346 901.989 667.206C902.514 670.024 902.922 672.35 903.214 674.182C904.097 679.458 905.071 684.693 906.136 689.886C907.249 694.947 908.549 699.104 910.037 702.356C910.574 703.53 910.797 704.138 910.707 704.18C910.609 704.443 910.321 704.411 909.843 704.083C909.456 703.714 909.069 703.345 908.682 702.976C906.291 700.137 904.356 696.98 902.876 693.506C901.446 689.901 900.266 686.126 899.336 682.182C898.364 678.148 897.574 674.031 896.964 669.832C896.403 665.5 895.818 661.235 895.208 657.036C894.324 651.76 893.358 646.304 892.309 640.666C891.219 634.939 889.147 629.333 886.092 623.849C885.886 623.397 885.737 623.192 885.647 623.233C885.605 623.143 885.63 623.077 885.72 623.036C885.901 622.953 886.251 623.121 886.77 623.539ZM879.961 660.24C875.616 665.068 872.471 670.493 870.529 676.515C868.635 682.405 867.872 688.38 868.24 694.438C868.418 696.977 868.691 699.365 869.058 701.6C869.474 703.704 870.087 705.881 870.898 708.132C871.303 709.257 871.76 709.539 872.269 708.979C872.777 708.419 873.133 707.765 873.337 707.016C873.801 705.165 874.196 703.401 874.521 701.723C874.805 699.955 875.088 698.187 875.372 696.419C875.704 694.519 876.016 692.574 876.308 690.584C876.648 688.462 877.038 686.209 877.476 683.824C877.963 681.307 878.381 678.877 878.729 676.533C879.126 674.057 879.405 671.8 879.564 669.761C879.814 667.681 879.946 665.818 879.958 664.174C880.061 662.488 880.062 661.177 879.961 660.24ZM881.876 672.308C881.516 680.119 880.9 687.61 880.029 694.78C879.117 701.861 877.501 708.716 875.181 715.348C873.744 719.61 871.867 719.922 869.548 716.286C867.963 713.297 866.722 709.987 865.826 706.355C864.929 702.724 864.432 699.128 864.333 695.569C864.186 692.141 864.35 688.68 864.827 685.185C865.304 681.69 866.155 678.297 867.381 675.005C868.606 671.714 870.223 668.681 872.231 665.906C874.329 663.09 876.834 660.687 879.748 658.699C879.097 654.41 878.442 650.231 877.783 646.163C877.083 642.005 876.243 638.02 875.265 634.207C874.286 630.395 873.052 626.863 871.565 623.611C870.127 620.227 868.41 617.189 866.414 614.498C865.986 614.038 865.817 613.788 865.907 613.747C866.046 613.574 866.223 613.602 866.437 613.832C866.742 614.02 866.915 614.159 866.956 614.25C871.107 617.594 874.274 621.771 876.456 626.781C878.728 631.749 880.496 637.167 881.759 643.034C883.022 648.901 884.01 655.002 884.724 661.339C885.528 667.634 886.557 673.826 887.813 679.915C888.611 683.81 889.849 687.831 891.528 691.979C893.255 695.995 895.459 699.739 898.139 703.21C900.901 706.862 904.163 709.575 907.924 711.351C911.644 713.035 915.147 713.29 918.432 712.115C919.196 711.875 919.62 711.845 919.702 712.026C919.785 712.207 919.691 712.359 919.42 712.483C919.28 712.656 919.12 712.784 918.94 712.866C917.043 713.734 914.98 714.24 912.753 714.385C910.616 714.489 908.424 714.235 906.178 713.624C903.933 713.012 901.764 712.092 899.673 710.864C897.631 709.504 895.802 707.774 894.186 705.673C893.675 705.033 893.316 704.487 893.11 704.035C892.77 709.98 891.475 715.269 889.225 719.903C887.024 724.404 883.317 728.121 878.103 731.051C874.162 733.181 870.612 733.658 867.452 732.482C864.383 731.264 861.74 729.305 859.522 726.606C857.304 723.906 855.567 720.823 854.309 717.357C853.01 713.8 852.226 710.773 851.957 708.274C851.184 701.091 851.305 694.428 852.318 688.284C853.29 682.051 854.923 677.262 857.217 673.919C857.315 673.656 857.524 673.396 857.844 673.141C858.123 672.795 858.328 672.646 858.46 672.695C858.682 672.703 858.719 672.904 858.572 673.299C858.425 673.694 858.327 673.958 858.278 674.089C855.631 681.198 854.398 688.534 854.58 696.097C854.811 703.528 856.324 710.537 859.118 717.124C859.771 718.791 860.622 720.532 861.67 722.346C862.718 724.161 863.951 725.782 865.369 727.209C866.835 728.504 868.469 729.45 870.271 730.046C872.031 730.552 873.995 730.309 876.163 729.317C879.276 728.003 881.754 725.777 883.596 722.641C885.487 719.373 886.786 715.884 887.493 712.175C888.249 708.334 888.515 704.498 888.293 700.668C888.07 696.837 887.429 693.526 886.371 690.733C886.069 691.745 885.878 692.761 885.798 693.78C885.677 694.71 885.462 695.791 885.152 697.025C885.144 697.247 885.018 697.687 884.773 698.345C884.486 698.913 884.187 699.214 883.875 699.248C883.653 699.24 883.516 698.702 883.464 697.633C883.371 696.474 883.347 695.229 883.394 693.897C883.399 692.475 883.445 691.143 883.532 689.901C883.579 688.569 883.609 687.681 883.625 687.237C883.668 684.705 883.486 682.276 883.078 679.951C882.669 677.625 882.269 675.078 881.876 672.308ZM920.851 707.732C920.934 707.913 920.791 708.197 920.422 708.584C920.192 708.798 919.987 708.947 919.806 709.029C918.173 709.995 916.505 710.648 914.804 710.989C913.194 711.289 911.269 711.022 909.031 710.189C907.847 709.748 906.566 708.859 905.19 707.522C903.904 706.144 902.73 704.769 901.666 703.399C900.693 701.987 899.938 700.694 899.4 699.52C898.954 698.304 898.932 697.659 899.334 697.584C899.383 697.452 899.602 697.571 899.989 697.94C900.466 698.268 900.94 698.707 901.41 699.256C901.838 699.716 902.288 700.22 902.758 700.77C903.186 701.229 903.507 701.574 903.722 701.803C904.834 703.042 905.976 704.104 907.145 704.989C908.314 705.874 909.557 706.562 910.874 707.052C914.199 708.59 917.146 708.826 919.717 707.759C919.898 707.677 920.099 707.639 920.321 707.647C920.592 707.523 920.769 707.551 920.851 707.732ZM875.052 659.536C875.093 659.627 875.044 659.758 874.905 659.931C874.856 660.063 874.602 660.343 874.142 660.772C873.175 661.76 872.08 663.189 870.86 665.058C869.598 666.837 868.37 668.928 867.175 671.331C865.98 673.734 864.91 676.409 863.963 679.354C863.065 682.168 862.476 685.059 862.195 688.027C861.955 691.086 861.876 694.017 861.956 696.82C862.086 699.491 862.334 701.945 862.701 704.18C863.026 706.325 863.364 708.137 863.712 709.616C864.151 711.053 864.429 712.019 864.545 712.512C865.157 714.089 865.814 715.645 866.517 717.181C867.178 718.626 867.978 719.898 868.918 720.998C869.907 721.966 870.997 722.559 872.19 722.778C873.382 722.997 874.82 722.558 876.503 721.461C876.683 721.379 877.143 720.95 877.881 720.175C878.668 719.269 879.173 718.82 879.394 718.828C879.526 718.877 879.564 719.078 879.507 719.432C879.45 719.785 879.324 720.226 879.128 720.752C878.89 721.188 878.653 721.625 878.415 722.061C878.227 722.366 878.108 722.584 878.059 722.715C877.453 723.539 876.715 724.313 875.845 725.039C874.934 725.674 873.94 726.128 872.864 726.402C871.878 726.635 870.855 726.666 869.794 726.496C868.692 726.235 867.712 725.645 866.855 724.727C864.333 721.839 862.394 718.793 861.038 715.59C859.773 712.346 858.754 709.044 857.981 705.683C857.168 702.232 856.806 698.575 856.895 694.711C856.683 691.858 856.927 688.689 857.626 685.201C858.415 681.673 859.578 678.246 861.116 674.921C862.654 671.596 864.447 668.592 866.496 665.907C868.636 663.181 870.904 661.215 873.302 660.009C873.663 659.844 874.025 659.679 874.386 659.513C874.747 659.348 874.969 659.356 875.052 659.536ZM927.66 654.318C927.394 653.02 926.91 651.603 926.208 650.067C925.596 648.49 924.783 646.951 923.768 645.449C922.753 643.946 921.554 642.638 920.17 641.523C918.836 640.277 917.378 639.359 915.799 638.771C915.091 638.658 914.693 638.622 914.602 638.663C914.241 638.828 914.365 639.099 914.974 639.476C916.053 640.402 917.081 642.172 918.057 644.784C919.082 647.264 919.988 649.962 920.776 652.879C921.523 655.705 922.121 658.326 922.57 660.742C923.069 663.026 923.376 664.415 923.492 664.908C923.604 666.823 923.946 669.124 924.52 671.811C925.183 674.457 925.866 676.547 926.569 678.083C926.561 678.305 926.681 678.687 926.929 679.229C927.177 679.771 927.457 680.025 927.769 679.992C927.86 679.95 927.937 679.642 928.002 679.066C928.066 678.491 928.147 678.071 928.245 677.808C928.549 674.174 928.639 670.31 928.514 666.216C928.48 662.081 928.195 658.115 927.66 654.318ZM937.56 674.531C937.178 672.74 936.815 670.393 936.471 667.492C936.086 664.501 935.545 661.526 934.847 658.568C934.108 655.52 933.14 652.686 931.942 650.066C930.703 647.356 929.148 645.391 927.279 644.17C926.753 643.974 926.399 643.917 926.218 644C926.038 644.083 926.075 644.284 926.331 644.604C927.901 648.037 928.961 651.43 929.511 654.782C930.111 658.004 930.599 661.221 930.976 664.434C931.548 669.744 932.213 674.901 932.973 679.906C933.691 684.82 935.194 689.54 937.482 694.064C937.606 694.335 937.751 694.651 937.916 695.012C938.13 695.242 938.373 695.295 938.644 695.171C938.824 695.088 938.919 694.936 938.926 694.714C938.934 694.492 938.946 694.159 938.961 693.715C938.873 691.134 938.755 688.13 938.607 684.702C938.418 681.184 938.069 677.793 937.56 674.531ZM939.032 703.186C936.49 702.164 934.271 700.776 932.376 699.021C930.44 697.175 928.775 695.206 927.381 693.113C925.945 690.93 924.781 688.622 923.887 686.191C922.994 683.76 922.343 681.381 921.934 679.056C921.26 675.432 920.812 671.705 920.589 667.874C920.366 664.044 919.984 660.341 919.441 656.766C918.857 653.101 917.908 649.712 916.594 646.6C915.328 643.355 913.291 640.573 910.483 638.253C910.005 637.925 909.721 637.782 909.631 637.824C909.54 637.865 909.537 637.976 909.619 638.156C909.661 638.247 909.747 638.317 909.879 638.366C911.389 640.952 912.489 643.835 913.179 647.014C913.869 650.194 914.419 653.547 914.83 657.073C915.2 660.509 915.496 664.141 915.718 667.972C915.99 671.671 916.484 675.377 917.199 679.091C917.682 681.82 918.367 684.51 919.253 687.164C920.229 689.776 921.566 692.222 923.265 694.504C924.923 696.695 926.99 698.589 929.469 700.187C931.947 701.784 934.975 702.911 938.552 703.569C938.816 703.667 939.083 703.654 939.354 703.53C939.666 703.496 939.559 703.382 939.032 703.186ZM937.761 697.541C937.16 696.942 936.431 696.183 935.574 695.264C934.807 694.304 934.106 693.369 933.471 692.458C933.125 692.179 932.589 691.605 931.864 690.735C931.138 689.865 930.685 689.472 930.504 689.554C930.143 689.72 930.017 690.16 930.125 690.875C930.324 691.548 930.651 692.382 931.105 693.376C931.518 694.279 932.018 695.252 932.604 696.295C933.239 697.206 933.858 697.961 934.459 698.56C935.827 700.118 937.038 701.094 938.091 701.486C939.235 701.837 940.542 701.949 942.013 701.822C942.679 701.845 943.148 701.795 943.419 701.671C943.509 701.63 943.468 701.539 943.295 701.4C943.254 701.31 943.188 701.285 943.097 701.326C942.135 700.893 941.196 700.394 940.282 699.829C939.459 699.222 938.619 698.459 937.761 697.541ZM916.291 622.653C915.84 622.859 915.096 623.145 914.062 623.509C913.076 623.741 912.417 623.496 912.087 622.774C911.963 622.503 912.225 622 912.872 621.267C913.479 620.444 914.114 619.444 914.777 618.266C915.399 616.999 915.848 615.592 916.124 614.046C916.358 612.409 916.042 610.643 915.174 608.746C914.1 606.397 912.843 604.842 911.402 604.081C911.098 603.892 910.748 603.725 910.353 603.578C909.917 603.34 909.723 603.156 909.772 603.024C909.953 602.941 910.175 602.949 910.438 603.047C910.75 603.014 910.972 603.021 911.104 603.07C913.365 603.238 915.319 603.928 916.966 605.141C918.662 606.222 919.841 607.485 920.502 608.931C921.824 611.821 922.22 614.48 921.692 616.906C921.163 619.333 919.363 621.248 916.291 622.653ZM908.799 619.526C907.922 620.473 907.256 620.45 906.801 619.456C906.471 618.734 906.432 617.932 906.685 617.052C906.896 616.081 907.042 615.086 907.122 614.067C907.292 613.006 907.24 611.937 906.966 610.861C906.651 609.694 905.781 608.508 904.356 607.303C903.969 606.934 903.425 606.582 902.726 606.247C902.026 605.911 901.746 605.657 901.886 605.484C902.025 605.311 902.428 605.236 903.094 605.259C903.809 605.151 904.277 605.1 904.499 605.108C906.365 605.128 907.99 605.696 909.374 606.811C910.848 607.884 911.833 608.963 912.329 610.047C913.114 611.763 913.052 613.539 912.144 615.375C911.284 617.078 910.17 618.462 908.799 619.526ZM901.523 614.006C901.317 613.554 901.225 612.995 901.248 612.329C901.23 611.573 901.537 611.05 902.169 610.761C902.621 610.555 903.127 610.706 903.687 611.214C904.206 611.632 904.569 612.067 904.775 612.519C904.94 612.88 905.032 613.439 905.05 614.195C905.027 614.861 904.79 615.297 904.338 615.504C903.706 615.793 903.13 615.728 902.611 615.31C902.092 614.892 901.73 614.457 901.523 614.006Z" fill="white"/>
<path d="M858.768 280.56L855.606 280.604L855.561 279.859C855.388 274.566 850.968 270.337 845.672 270.399L826.523 270.667C821.236 270.743 817.081 275.086 817.238 280.371L817.262 281.139L814.055 281.183C812.298 281.206 810.916 282.648 810.968 284.404C810.968 284.406 810.968 284.408 810.968 284.411C811.029 286.178 812.504 287.589 814.272 287.571L817.455 287.504L817.65 293.915L814.443 293.96C812.684 293.984 811.302 295.429 811.355 297.187C811.409 298.945 812.877 300.35 814.636 300.325L817.843 300.281C817.985 304.837 820.549 309.012 824.569 311.23L824.916 321.908L824.925 322.224L824.923 322.442C824.922 322.479 824.903 322.511 824.904 322.548C824.905 322.573 824.919 322.593 824.92 322.617L824.918 322.744L825.294 335.114L825.298 335.276L825.291 335.317L825.301 335.358L825.306 335.52L825.691 347.461L825.705 347.929C825.704 347.984 825.676 348.032 825.678 348.088C825.68 348.144 825.71 348.19 825.715 348.246L825.729 348.725L826.074 360.815L826.067 360.857L826.077 360.898L826.078 360.937L826.434 372.676L826.448 372.774C826.448 372.809 826.429 372.839 826.43 372.875L826.431 372.879L826.418 372.879C822.694 372.81 818.983 373.173 815.358 373.96C803.712 376.584 793.342 386.958 796.101 399.724C797.303 404.055 799.28 408.145 801.935 411.793C804.852 416.336 807.364 420.231 806.79 424.372C805.744 428.173 803.63 431.579 800.695 434.19C799.69 435.333 798.686 436.476 797.75 437.641C789.553 448.02 787.507 462.037 792.363 474.527C797.501 485.86 806.979 494.706 818.636 499.048C833.33 504.983 849.657 505.055 864.209 499.248C870.96 496.607 877.057 492.567 882.103 487.391C883.873 485.555 885.461 483.552 886.846 481.408C892.45 473.178 894.264 462.905 891.839 453.132C889.693 445.949 885.682 439.434 880.219 434.257C879.496 433.521 878.705 432.765 877.914 432.008C876.345 430.581 874.886 429.039 873.549 427.394C872.165 425.841 871.218 423.951 870.808 421.922C870.022 417.619 872.715 413.314 875.56 408.803C876.703 407.003 877.844 405.157 878.804 403.27C881.322 398.402 882.446 391.543 878.083 386.974C873.532 382.183 865.738 382.923 860.39 386.092C859.479 386.624 858.594 387.223 857.687 387.846C856.101 389.019 854.369 389.984 852.533 390.718L851.228 347.737L850.84 334.961L850.452 322.184L850.109 310.898C851.058 310.334 851.926 309.646 852.69 308.852C855.02 306.427 856.271 303.159 856.165 299.77L856.187 299.747L859.348 299.703C861.075 299.712 862.459 298.321 862.439 296.596C862.439 296.556 862.438 296.516 862.436 296.476C862.384 294.72 860.919 293.315 859.162 293.337C859.16 293.337 859.157 293.337 859.155 293.337L855.994 293.381L855.777 286.993L858.961 286.926C860.687 286.936 862.07 285.545 862.052 283.82C862.051 283.78 862.05 283.739 862.048 283.699C861.997 281.943 860.531 280.538 858.775 280.56C858.773 280.56 858.77 280.56 858.768 280.56ZM855.194 467.954C855.194 467.956 855.194 467.959 855.194 467.962C855.223 468.812 854.906 469.631 854.314 470.232C853.746 470.842 852.948 471.189 852.107 471.189L832.936 471.479C831.179 471.505 829.711 470.104 829.655 468.348C829.655 468.345 829.655 468.343 829.655 468.34L829.655 468.34C829.578 466.595 830.929 465.14 832.675 465.091C832.705 465.091 832.735 465.09 832.764 465.09L851.914 464.823C853.67 464.796 855.138 466.198 855.194 467.954ZM867.976 467.783C867.984 467.988 867.968 468.193 867.926 468.393C867.886 468.608 867.832 468.82 867.765 469.028C867.686 469.209 867.593 469.384 867.487 469.551C867.383 469.737 867.25 469.907 867.096 470.054C866.526 470.662 865.729 471.007 864.888 471.01C863.164 471.068 861.697 469.716 861.611 467.992C861.609 467.952 861.608 467.912 861.607 467.872C861.581 466.809 862.073 465.808 862.927 465.189C863.097 465.082 863.276 464.989 863.461 464.91L864.064 464.698C864.273 464.669 864.484 464.651 864.695 464.644C865.535 464.625 866.352 464.947 866.959 465.539C867.584 466.125 867.95 466.934 867.976 467.783ZM873.959 454.937C874.008 456.701 872.617 458.148 870.852 458.168C870.012 458.177 869.197 457.856 868.583 457.274C867.968 456.673 867.611 455.858 867.588 455.006C867.597 453.274 868.945 451.865 870.675 451.779C872.44 451.759 873.911 453.173 873.959 454.937ZM860.838 442.292C860.838 442.308 860.839 442.325 860.81 442.341L860.81 442.341C860.978 447.619 856.834 451.964 851.554 452.046C851.545 452.046 851.535 452.046 851.525 452.046L832.376 452.313C827.082 452.408 822.643 448.195 822.461 442.903C822.28 437.611 826.423 433.244 831.717 433.149C831.735 433.149 831.753 433.148 831.772 433.148L850.944 432.904C856.235 432.816 860.664 437.003 860.838 442.292ZM846.462 401.349L846.656 407.715L833.874 407.893L833.681 401.527L833.692 401.516L846.463 401.338L846.462 401.349ZM846.25 393.606L846.239 393.99L846.264 394.058L846.301 394.532L846.292 394.955L833.51 395.132L833.315 388.728L846.075 388.572L846.25 393.606ZM845.903 382.184L833.122 382.362L832.915 376.29L832.908 376.064L832.929 375.996L832.928 375.978L845.687 375.799L845.903 382.184ZM845.322 363.786L845.515 369.407L845.516 369.415L832.734 369.594L832.734 369.585L832.563 363.961L845.322 363.784L845.322 363.786ZM845.151 357.398L845.151 357.399L832.369 357.577L832.175 351.191L844.934 351.013L845.151 357.398ZM844.763 344.621L844.763 344.628L831.982 344.807L831.788 338.42L844.546 338.243L844.763 344.621ZM844.181 325.478L844.353 331.858L831.594 332.035L831.4 325.651L844.181 325.474L844.181 325.478ZM843.987 319.068L843.966 319.09L831.206 319.267L831.013 312.88L843.794 312.702L843.987 319.068ZM830.505 296.913C830.505 296.916 830.505 296.918 830.505 296.921C830.591 298.645 829.262 300.089 827.538 300.146C827.498 300.148 827.458 300.148 827.418 300.148L824.256 300.192L824.063 293.826L827.224 293.782C828.981 293.755 830.45 295.157 830.505 296.913ZM827.15 287.369C827.11 287.371 827.07 287.371 827.03 287.371L823.868 287.415L823.675 281.049L826.836 281.005C828.593 280.979 830.062 282.381 830.117 284.137C830.117 284.139 830.117 284.142 830.117 284.144C830.203 285.868 828.874 287.312 827.15 287.369ZM849.774 299.836L846.567 299.881C844.808 299.905 843.34 298.501 843.287 296.742C843.233 294.984 844.615 293.54 846.374 293.515L849.581 293.47L849.774 299.836ZM849.386 287.06L846.203 287.127C844.435 287.144 842.96 285.733 842.899 283.966C842.844 282.21 844.223 280.765 845.98 280.739C845.982 280.739 845.984 280.739 845.986 280.739L849.193 280.694L849.386 287.06Z" fill="white"/>
</svg>
